ffmpeg started on 2025-06-09 at 17:40:26
Report written to "D:\Convert\FFMetrics\reports\psnr_report-6.txt"
Log level: 32
Command line:
ffmpeg -hide_banner -nostdin -i "G:\\\xc0\xed\xe8\xec\xe5\\\xce\xed\xe3\xee\xe8\xed\xe3\xe8\\!_30_\xc2\xe5\xf1\xed\xe0_2023\\\xd1\xeb\xe8\xf8\xea\xee\xec \xec\xe8\xeb\xfb\xe9 \xea\xf0\xe8\xe7\xe8\xf1\\Kawaisugi_Crisis_[02]_[AniLibria_TV]_[WEBRip_1080p]_HEVC.mkv" -i "G:\\\xc0\xed\xe8\xec\xe5\\\xce\xed\xe3\xee\xe8\xed\xe3\xe8\\!_30_\xc2\xe5\xf1\xed\xe0_2023\\\xd1\xeb\xe8\xf8\xea\xee\xec \xec\xe8\xeb\xfb\xe9 \xea\xf0\xe8\xe7\xe8\xf1\\Kawaisugi_Crisis_[02]_[AniLibria_TV]_[WEBRip_1080p].mkv" -lavfi "[0:v]settb=AVTB,setpts=PTS-STARTPTS,format=pix_fmts=yuv420p10,fps=24000/1001,scale=1920:1080:flags=bicubic[main];[1:v]settb=AVTB,setpts=PTS-STARTPTS,format=pix_fmts=yuv420p,fps=24000/1001,scale=1920:1080:flags=bicubic[ref];[main][ref]psnr=eof_action=endall:stats_file='D\\:/Convert/FFMetrics/logs/psnr_logfile-6.txt'" -f null -
Input #0, matroska,webm, from 'G:\Аниме\Онгоинги\!_30_Весна_2023\Слишком милый кризис\Kawaisugi_Crisis_[02]_[AniLibria_TV]_[WEBRip_1080p]_HEVC.mkv':
  Metadata:
    ENCODER         : Lavf61.7.100
  Duration: 00:23:42.46, start: -0.021000, bitrate: 871 kb/s
  Stream #0:0(jpn): Video: hevc (Main 10), yuv420p10le(tv, bt709, progressive), 1920x1080 [SAR 1:1 DAR 16:9], 23.98 fps, 23.98 tbr, 1k tbn (default) (forced)
      Metadata:
        title           : Original
        ENCODER         : Lavc61.19.100 libx265
        BPS             : 673141
        DURATION        : 00:23:42.420708333
        NUMBER_OF_FRAMES: 34104
        NUMBER_OF_BYTES : 119686306
        _STATISTICS_WRITING_APP: mkvpropedit v66.0.0 ('Josie') 64-bit
        _STATISTICS_WRITING_DATE_UTC: 2025-06-09 12:46:16
        _STATISTICS_TAGS: BPS DURATION NUMBER_OF_FRAMES NUMBER_OF_BYTES
  Stream #0:1(rus): Audio: aac (LC), 48000 Hz, stereo, fltp (default) (forced)
      Metadata:
        title           : AniLibria.TV
        ENCODER         : Lavc61.19.100 aac
        BPS             : 193610
        DURATION        : 00:23:42.400000000
        NUMBER_OF_FRAMES: 66676
        NUMBER_OF_BYTES : 34423905
        _STATISTICS_WRITING_APP: mkvpropedit v66.0.0 ('Josie') 64-bit
        _STATISTICS_WRITING_DATE_UTC: 2025-06-09 12:46:16
        _STATISTICS_TAGS: BPS DURATION NUMBER_OF_FRAMES NUMBER_OF_BYTES
  Stream #0:2(rus): Subtitle: ass (ssa) (default) (forced)
      Metadata:
        title           : Надписи
        BPS             : 0
        DURATION        : 00:00:00.000000000
        NUMBER_OF_FRAMES: 0
        NUMBER_OF_BYTES : 0
        _STATISTICS_WRITING_APP: mkvpropedit v66.0.0 ('Josie') 64-bit
        _STATISTICS_WRITING_DATE_UTC: 2025-06-09 12:46:16
        _STATISTICS_TAGS: BPS DURATION NUMBER_OF_FRAMES NUMBER_OF_BYTES
  Stream #0:3(rus): Subtitle: ass (ssa)
      Metadata:
        title           : Субтитры
        BPS             : 215
        DURATION        : 00:23:38.960000000
        NUMBER_OF_FRAMES: 382
        NUMBER_OF_BYTES : 38234
        _STATISTICS_WRITING_APP: mkvpropedit v66.0.0 ('Josie') 64-bit
        _STATISTICS_WRITING_DATE_UTC: 2025-06-09 12:46:16
        _STATISTICS_TAGS: BPS DURATION NUMBER_OF_FRAMES NUMBER_OF_BYTES
Input #1, matroska,webm, from 'G:\Аниме\Онгоинги\!_30_Весна_2023\Слишком милый кризис\Kawaisugi_Crisis_[02]_[AniLibria_TV]_[WEBRip_1080p].mkv':
  Metadata:
    encoder         : libebml v1.4.2 + libmatroska v1.6.4
    creation_time   : 2025-01-14T16:53:26.000000Z
  Duration: 00:23:42.46, start: 0.000000, bitrate: 1598 kb/s
  Stream #1:0(jpn): Video: h264 (High), yuv420p(progressive), 1920x1080 [SAR 1:1 DAR 16:9], 23.98 fps, 23.98 tbr, 1k tbn (default) (forced)
      Metadata:
        title           : Original
        BPS             : 1401945
        DURATION        : 00:23:42.421000000
        NUMBER_OF_FRAMES: 34104
        NUMBER_OF_BYTES : 249269622
        _STATISTICS_WRITING_APP: mkvmerge v66.0.0 ('Josie') 64-bit
        _STATISTICS_WRITING_DATE_UTC: 2025-01-14 16:53:26
        _STATISTICS_TAGS: BPS DURATION NUMBER_OF_FRAMES NUMBER_OF_BYTES
  Stream #1:1(rus): Audio: aac (LC), 48000 Hz, stereo, fltp (default) (forced)
      Metadata:
        title           : AniLibria.TV
        BPS             : 192088
        DURATION        : 00:23:42.400000000
        NUMBER_OF_FRAMES: 66675
        NUMBER_OF_BYTES : 34153247
        _STATISTICS_WRITING_APP: mkvmerge v66.0.0 ('Josie') 64-bit
        _STATISTICS_WRITING_DATE_UTC: 2025-01-14 16:53:26
        _STATISTICS_TAGS: BPS DURATION NUMBER_OF_FRAMES NUMBER_OF_BYTES
  Stream #1:2(rus): Subtitle: ass (ssa) (default) (forced)
      Metadata:
        title           : Надписи
        BPS             : 0
        DURATION        : 00:00:00.000000000
        NUMBER_OF_FRAMES: 0
        NUMBER_OF_BYTES : 0
        _STATISTICS_WRITING_APP: mkvmerge v66.0.0 ('Josie') 64-bit
        _STATISTICS_WRITING_DATE_UTC: 2025-01-14 16:53:26
        _STATISTICS_TAGS: BPS DURATION NUMBER_OF_FRAMES NUMBER_OF_BYTES
  Stream #1:3(rus): Subtitle: ass (ssa)
      Metadata:
        title           : Субтитры
        BPS             : 215
        DURATION        : 00:23:38.960000000
        NUMBER_OF_FRAMES: 382
        NUMBER_OF_BYTES : 38234
        _STATISTICS_WRITING_APP: mkvmerge v66.0.0 ('Josie') 64-bit
        _STATISTICS_WRITING_DATE_UTC: 2025-01-14 16:53:26
        _STATISTICS_TAGS: BPS DURATION NUMBER_OF_FRAMES NUMBER_OF_BYTES
  Stream #1:4: Attachment: ttf
      Metadata:
        filename        : Roboto-Medium.ttf
        mimetype        : application/x-truetype-font
Stream mapping:
  Stream #0:0 (hevc) -> settb:default
  Stream #1:0 (h264) -> settb:default
  psnr:default -> Stream #0:0 (wrapped_avframe)
  Stream #0:1 -> #0:1 (aac (native) -> pcm_s16le (native))
[swscaler @ 00000219c1cd7100] No accelerated colorspace conversion found from yuv420p to bgr48le.
[swscaler @ 00000219c1dea1c0] No accelerated colorspace conversion found from yuv420p to bgr48le.
[swscaler @ 00000219c1f02b40] No accelerated colorspace conversion found from yuv420p to bgr48le.
[swscaler @ 00000219c21400c0] No accelerated colorspace conversion found from yuv420p to bgr48le.
[swscaler @ 00000219c2201040] No accelerated colorspace conversion found from yuv420p to bgr48le.
[swscaler @ 00000219c237c280] No accelerated colorspace conversion found from yuv420p to bgr48le.
[swscaler @ 00000219c2396ac0] No accelerated colorspace conversion found from yuv420p to bgr48le.
[swscaler @ 00000219c24e1c80] No accelerated colorspace conversion found from yuv420p to bgr48le.
[swscaler @ 00000219c2663d00] No accelerated colorspace conversion found from yuv420p to bgr48le.
[swscaler @ 00000219c9478cc0] No accelerated colorspace conversion found from yuv420p to bgr48le.
[swscaler @ 00000219c966dd00] No accelerated colorspace conversion found from yuv420p to bgr48le.
[swscaler @ 00000219c9687cc0] No accelerated colorspace conversion found from yuv420p to bgr48le.
[swscaler @ 00000219c9883cc0] No accelerated colorspace conversion found from yuv420p to bgr48le.
[swscaler @ 00000219c9a42040] No accelerated colorspace conversion found from yuv420p to bgr48le.
[swscaler @ 00000219c9a9d040] No accelerated colorspace conversion found from yuv420p to bgr48le.
[swscaler @ 00000219c9b90040] No accelerated colorspace conversion found from yuv420p to bgr48le.
Output #0, null, to 'pipe:':
  Metadata:
    encoder         : Lavf61.7.100
  Stream #0:0: Video: wrapped_avframe, yuv420p10le(tv, bt709, progressive), 1920x1080 [SAR 1:1 DAR 16:9], q=2-31, 200 kb/s, 23.98 fps, 23.98 tbn
      Metadata:
        encoder         : Lavc61.19.100 wrapped_avframe
  Stream #0:1(rus): Audio: pcm_s16le, 48000 Hz, stereo, s16, 1536 kb/s (default) (forced)
      Metadata:
        title           : AniLibria.TV
        _STATISTICS_TAGS: BPS DURATION NUMBER_OF_FRAMES NUMBER_OF_BYTES
        BPS             : 193610
        DURATION        : 00:23:42.400000000
        NUMBER_OF_FRAMES: 66676
        NUMBER_OF_BYTES : 34423905
        _STATISTICS_WRITING_APP: mkvpropedit v66.0.0 ('Josie') 64-bit
        _STATISTICS_WRITING_DATE_UTC: 2025-06-09 12:46:16
        encoder         : Lavc61.19.100 pcm_s16le
frame=   32 fps=0.0 q=-0.0 size=N/A time=00:00:01.33 bitrate=N/A speed=2.61x    frame=   70 fps= 68 q=-0.0 size=N/A time=00:00:02.91 bitrate=N/A speed=2.82x    frame=  111 fps= 72 q=-0.0 size=N/A time=00:00:04.62 bitrate=N/A speed=2.99x    frame=  150 fps= 72 q=-0.0 size=N/A time=00:00:06.25 bitrate=N/A speed=3.02x    frame=  188 fps= 72 q=-0.0 size=N/A time=00:00:07.84 bitrate=N/A speed=3.02x    frame=  226 fps= 72 q=-0.0 size=N/A time=00:00:09.42 bitrate=N/A speed=3.02x    frame=  264 fps= 73 q=-0.0 size=N/A time=00:00:11.01 bitrate=N/A speed=3.04x    frame=  302 fps= 73 q=-0.0 size=N/A time=00:00:12.59 bitrate=N/A speed=3.04x    frame=  339 fps= 73 q=-0.0 size=N/A time=00:00:14.13 bitrate=N/A speed=3.04x    frame=  378 fps= 73 q=-0.0 size=N/A time=00:00:15.76 bitrate=N/A speed=3.05x    frame=  417 fps= 73 q=-0.0 size=N/A time=00:00:17.39 bitrate=N/A speed=3.06x    frame=  457 fps= 74 q=-0.0 size=N/A time=00:00:19.06 bitrate=N/A speed=3.07x    frame=  496 fps= 74 q=-0.0 size=N/A time=00:00:20.68 bitrate=N/A speed=3.08x    frame=  524 fps= 72 q=-0.0 size=N/A time=00:00:21.85 bitrate=N/A speed=3.02x    frame=  568 fps= 73 q=-0.0 size=N/A time=00:00:23.69 bitrate=N/A speed=3.06x    frame=  615 fps= 74 q=-0.0 size=N/A time=00:00:25.65 bitrate=N/A speed= 3.1x    frame=  653 fps= 74 q=-0.0 size=N/A time=00:00:27.23 bitrate=N/A speed= 3.1x    frame=  680 fps= 73 q=-0.0 size=N/A time=00:00:28.36 bitrate=N/A speed=3.05x    frame=  732 fps= 75 q=-0.0 size=N/A time=00:00:30.53 bitrate=N/A speed=3.11x    frame=  773 fps= 75 q=-0.0 size=N/A time=00:00:32.24 bitrate=N/A speed=3.12x    frame=  813 fps= 75 q=-0.0 size=N/A time=00:00:33.90 bitrate=N/A speed=3.13x    frame=  849 fps= 75 q=-0.0 size=N/A time=00:00:35.41 bitrate=N/A speed=3.12x    frame=  890 fps= 75 q=-0.0 size=N/A time=00:00:37.12 bitrate=N/A speed=3.13x    frame=  930 fps= 75 q=-0.0 size=N/A time=00:00:38.78 bitrate=N/A speed=3.13x    frame=  963 fps= 75 q=-0.0 size=N/A time=00:00:40.16 bitrate=N/A speed=3.11x    frame= 1008 fps= 75 q=-0.0 size=N/A time=00:00:42.04 bitrate=N/A speed=3.13x    frame= 1046 fps= 75 q=-0.0 size=N/A time=00:00:43.62 bitrate=N/A speed=3.13x    frame= 1082 fps= 75 q=-0.0 size=N/A time=00:00:45.12 bitrate=N/A speed=3.12x    frame= 1124 fps= 75 q=-0.0 size=N/A time=00:00:46.88 bitrate=N/A speed=3.13x    frame= 1161 fps= 75 q=-0.0 size=N/A time=00:00:48.42 bitrate=N/A speed=3.12x    frame= 1200 fps= 75 q=-0.0 size=N/A time=00:00:50.05 bitrate=N/A speed=3.12x    frame= 1235 fps= 75 q=-0.0 size=N/A time=00:00:51.50 bitrate=N/A speed=3.12x    frame= 1273 fps= 75 q=-0.0 size=N/A time=00:00:53.09 bitrate=N/A speed=3.11x    frame= 1318 fps= 75 q=-0.0 size=N/A time=00:00:54.97 bitrate=N/A speed=3.13x    frame= 1350 fps= 75 q=-0.0 size=N/A time=00:00:56.30 bitrate=N/A speed=3.11x    frame= 1390 fps= 75 q=-0.0 size=N/A time=00:00:57.97 bitrate=N/A speed=3.12x    frame= 1436 fps= 75 q=-0.0 size=N/A time=00:00:59.89 bitrate=N/A speed=3.13x    frame= 1475 fps= 75 q=-0.0 size=N/A time=00:01:01.51 bitrate=N/A speed=3.13x    frame= 1515 fps= 75 q=-0.0 size=N/A time=00:01:03.18 bitrate=N/A speed=3.14x    frame= 1551 fps= 75 q=-0.0 size=N/A time=00:01:04.68 bitrate=N/A speed=3.13x    frame= 1593 fps= 75 q=-0.0 size=N/A time=00:01:06.44 bitrate=N/A speed=3.14x    frame= 1632 fps= 75 q=-0.0 size=N/A time=00:01:08.06 bitrate=N/A speed=3.14x    frame= 1670 fps= 75 q=-0.0 size=N/A time=00:01:09.65 bitrate=N/A speed=3.14x    frame= 1709 fps= 75 q=-0.0 size=N/A time=00:01:11.27 bitrate=N/A speed=3.14x    frame= 1746 fps= 75 q=-0.0 size=N/A time=00:01:12.82 bitrate=N/A speed=3.13x    frame= 1782 fps= 75 q=-0.0 size=N/A time=00:01:14.32 bitrate=N/A speed=3.13x    frame= 1822 fps= 75 q=-0.0 size=N/A time=00:01:15.99 bitrate=N/A speed=3.13x    frame= 1862 fps= 75 q=-0.0 size=N/A time=00:01:17.66 bitrate=N/A speed=3.13x    frame= 1899 fps= 75 q=-0.0 size=N/A time=00:01:19.20 bitrate=N/A speed=3.13x    frame= 1938 fps= 75 q=-0.0 size=N/A time=00:01:20.83 bitrate=N/A speed=3.13x    frame= 1974 fps= 75 q=-0.0 size=N/A time=00:01:22.33 bitrate=N/A speed=3.13x    frame= 2017 fps= 75 q=-0.0 size=N/A time=00:01:24.12 bitrate=N/A speed=3.13x    frame= 2056 fps= 75 q=-0.0 size=N/A time=00:01:25.75 bitrate=N/A speed=3.13x    frame= 2096 fps= 75 q=-0.0 size=N/A time=00:01:27.42 bitrate=N/A speed=3.14x    frame= 2136 fps= 75 q=-0.0 size=N/A time=00:01:29.08 bitrate=N/A speed=3.14x    frame= 2174 fps= 75 q=-0.0 size=N/A time=00:01:30.67 bitrate=N/A speed=3.14x    frame= 2215 fps= 75 q=-0.0 size=N/A time=00:01:32.38 bitrate=N/A speed=3.14x    frame= 2246 fps= 75 q=-0.0 size=N/A time=00:01:33.67 bitrate=N/A speed=3.13x    frame= 2294 fps= 75 q=-0.0 size=N/A time=00:01:35.67 bitrate=N/A speed=3.14x    frame= 2333 fps= 75 q=-0.0 size=N/A time=00:01:37.30 bitrate=N/A speed=3.14x    frame= 2372 fps= 75 q=-0.0 size=N/A time=00:01:38.93 bitrate=N/A speed=3.14x    frame= 2411 fps= 75 q=-0.0 size=N/A time=00:01:40.55 bitrate=N/A speed=3.14x    frame= 2439 fps= 75 q=-0.0 size=N/A time=00:01:41.72 bitrate=N/A speed=3.13x    frame= 2481 fps= 75 q=-0.0 size=N/A time=00:01:43.47 bitrate=N/A speed=3.13x    frame= 2518 fps= 75 q=-0.0 size=N/A time=00:01:45.02 bitrate=N/A speed=3.13x    frame= 2563 fps= 75 q=-0.0 size=N/A time=00:01:46.89 bitrate=N/A speed=3.14x    frame= 2601 fps= 75 q=-0.0 size=N/A time=00:01:48.48 bitrate=N/A speed=3.14x    frame= 2639 fps= 75 q=-0.0 size=N/A time=00:01:50.06 bitrate=N/A speed=3.14x    frame= 2674 fps= 75 q=-0.0 size=N/A time=00:01:51.52 bitrate=N/A speed=3.13x    frame= 2717 fps= 75 q=-0.0 size=N/A time=00:01:53.32 bitrate=N/A speed=3.13x    frame= 2756 fps= 75 q=-0.0 size=N/A time=00:01:54.94 bitrate=N/A speed=3.14x    frame= 2792 fps= 75 q=-0.0 size=N/A time=00:01:56.44 bitrate=N/A speed=3.13x    frame= 2834 fps= 75 q=-0.0 size=N/A time=00:01:58.20 bitrate=N/A speed=3.14x    frame= 2872 fps= 75 q=-0.0 size=N/A time=00:01:59.78 bitrate=N/A speed=3.14x    frame= 2912 fps= 75 q=-0.0 size=N/A time=00:02:01.45 bitrate=N/A speed=3.14x    frame= 2947 fps= 75 q=-0.0 size=N/A time=00:02:02.91 bitrate=N/A speed=3.13x    frame= 2975 fps= 75 q=-0.0 size=N/A time=00:02:04.08 bitrate=N/A speed=3.12x    frame= 3028 fps= 75 q=-0.0 size=N/A time=00:02:06.29 bitrate=N/A speed=3.14x    frame= 3067 fps= 75 q=-0.0 size=N/A time=00:02:07.91 bitrate=N/A speed=3.14x    frame= 3106 fps= 75 q=-0.0 size=N/A time=00:02:09.54 bitrate=N/A speed=3.14x    frame= 3143 fps= 75 q=-0.0 size=N/A time=00:02:11.08 bitrate=N/A speed=3.13x    frame= 3178 fps= 75 q=-0.0 size=N/A time=00:02:12.54 bitrate=N/A speed=3.13x    frame= 3226 fps= 75 q=-0.0 size=N/A time=00:02:14.55 bitrate=N/A speed=3.14x    frame= 3264 fps= 75 q=-0.0 size=N/A time=00:02:16.13 bitrate=N/A speed=3.14x    frame= 3296 fps= 75 q=-0.0 size=N/A time=00:02:17.47 bitrate=N/A speed=3.13x    frame= 3338 fps= 75 q=-0.0 size=N/A time=00:02:19.22 bitrate=N/A speed=3.14x    frame= 3384 fps= 75 q=-0.0 size=N/A time=00:02:21.14 bitrate=N/A speed=3.14x    frame= 3422 fps= 75 q=-0.0 size=N/A time=00:02:22.72 bitrate=N/A speed=3.14x    frame= 3461 fps= 75 q=-0.0 size=N/A time=00:02:24.35 bitrate=N/A speed=3.14x    frame= 3500 fps= 75 q=-0.0 size=N/A time=00:02:25.97 bitrate=N/A speed=3.14x    frame= 3539 fps= 75 q=-0.0 size=N/A time=00:02:27.60 bitrate=N/A speed=3.14x    frame= 3577 fps= 75 q=-0.0 size=N/A time=00:02:29.19 bitrate=N/A speed=3.14x    frame= 3613 fps= 75 q=-0.0 size=N/A time=00:02:30.69 bitrate=N/A speed=3.14x    frame= 3654 fps= 75 q=-0.0 size=N/A time=00:02:32.40 bitrate=N/A speed=3.14x    frame= 3690 fps= 75 q=-0.0 size=N/A time=00:02:33.90 bitrate=N/A speed=3.14x    frame= 3733 fps= 75 q=-0.0 size=N/A time=00:02:35.69 bitrate=N/A speed=3.14x    frame= 3771 fps= 75 q=-0.0 size=N/A time=00:02:37.28 bitrate=N/A speed=3.14x    frame= 3807 fps= 75 q=-0.0 size=N/A time=00:02:38.78 bitrate=N/A speed=3.14x    frame= 3849 fps= 75 q=-0.0 size=N/A time=00:02:40.53 bitrate=N/A speed=3.14x    frame= 3890 fps= 75 q=-0.0 size=N/A time=00:02:42.24 bitrate=N/A speed=3.14x    frame= 3921 fps= 75 q=-0.0 size=N/A time=00:02:43.53 bitrate=N/A speed=3.14x    frame= 3966 fps= 75 q=-0.0 size=N/A time=00:02:45.41 bitrate=N/A speed=3.14x    frame= 4009 fps= 75 q=-0.0 size=N/A time=00:02:47.20 bitrate=N/A speed=3.14x    frame= 4046 fps= 75 q=-0.0 size=N/A time=00:02:48.75 bitrate=N/A speed=3.14x    frame= 4074 fps= 75 q=-0.0 size=N/A time=00:02:49.91 bitrate=N/A speed=3.13x    frame= 4118 fps= 75 q=-0.0 size=N/A time=00:02:51.75 bitrate=N/A speed=3.14x    frame= 4164 fps= 75 q=-0.0 size=N/A time=00:02:53.67 bitrate=N/A speed=3.14x    frame= 4200 fps= 75 q=-0.0 size=N/A time=00:02:55.17 bitrate=N/A speed=3.14x    frame= 4237 fps= 75 q=-0.0 size=N/A time=00:02:56.71 bitrate=N/A speed=3.14x    frame= 4280 fps= 75 q=-0.0 size=N/A time=00:02:58.51 bitrate=N/A speed=3.14x    frame= 4318 fps= 75 q=-0.0 size=N/A time=00:03:00.09 bitrate=N/A speed=3.14x    frame= 4356 fps= 75 q=-0.0 size=N/A time=00:03:01.68 bitrate=N/A speed=3.14x    frame= 4396 fps= 75 q=-0.0 size=N/A time=00:03:03.34 bitrate=N/A speed=3.14x    frame= 4434 fps= 75 q=-0.0 size=N/A time=00:03:04.93 bitrate=N/A speed=3.14x    frame= 4474 fps= 75 q=-0.0 size=N/A time=00:03:06.60 bitrate=N/A speed=3.14x    frame= 4505 fps= 75 q=-0.0 size=N/A time=00:03:07.89 bitrate=N/A speed=3.14x    frame= 4553 fps= 75 q=-0.0 size=N/A time=00:03:09.89 bitrate=N/A speed=3.14x    frame= 4592 fps= 75 q=-0.0 size=N/A time=00:03:11.52 bitrate=N/A speed=3.14x    frame= 4628 fps= 75 q=-0.0 size=N/A time=00:03:13.02 bitrate=N/A speed=3.14x    frame= 4670 fps= 75 q=-0.0 size=N/A time=00:03:14.77 bitrate=N/A speed=3.14x    frame= 4711 fps= 75 q=-0.0 size=N/A time=00:03:16.48 bitrate=N/A speed=3.15x    frame= 4749 fps= 75 q=-0.0 size=N/A time=00:03:18.07 bitrate=N/A speed=3.15x    frame= 4788 fps= 75 q=-0.0 size=N/A time=00:03:19.69 bitrate=N/A speed=3.15x    frame= 4823 fps= 75 q=-0.0 size=N/A time=00:03:21.15 bitrate=N/A speed=3.14x    frame= 4866 fps= 75 q=-0.0 size=N/A time=00:03:22.95 bitrate=N/A speed=3.15x    frame= 4905 fps= 75 q=-0.0 size=N/A time=00:03:24.57 bitrate=N/A speed=3.15x    frame= 4944 fps= 75 q=-0.0 size=N/A time=00:03:26.20 bitrate=N/A speed=3.15x    frame= 4983 fps= 75 q=-0.0 size=N/A time=00:03:27.83 bitrate=N/A speed=3.15x    frame= 5020 fps= 75 q=-0.0 size=N/A time=00:03:29.37 bitrate=N/A speed=3.14x    frame= 5059 fps= 75 q=-0.0 size=N/A time=00:03:31.00 bitrate=N/A speed=3.14x    frame= 5096 fps= 75 q=-0.0 size=N/A time=00:03:32.54 bitrate=N/A speed=3.14x    frame= 5124 fps= 75 q=-0.0 size=N/A time=00:03:33.71 bitrate=N/A speed=3.14x    frame= 5175 fps= 75 q=-0.0 size=N/A time=00:03:35.84 bitrate=N/A speed=3.14x    frame= 5215 fps= 75 q=-0.0 size=N/A time=00:03:37.50 bitrate=N/A speed=3.15x    frame= 5248 fps= 75 q=-0.0 size=N/A time=00:03:38.88 bitrate=N/A speed=3.14x    frame= 5292 fps= 75 q=-0.0 size=N/A time=00:03:40.72 bitrate=N/A speed=3.14x    frame= 5331 fps= 75 q=-0.0 size=N/A time=00:03:42.34 bitrate=N/A speed=3.14x    frame= 5370 fps= 75 q=-0.0 size=N/A time=00:03:43.97 bitrate=N/A speed=3.14x    frame= 5409 fps= 75 q=-0.0 size=N/A time=00:03:45.60 bitrate=N/A speed=3.14x    frame= 5446 fps= 75 q=-0.0 size=N/A time=00:03:47.14 bitrate=N/A speed=3.14x    frame= 5479 fps= 75 q=-0.0 size=N/A time=00:03:48.51 bitrate=N/A speed=3.14x    frame= 5526 fps= 75 q=-0.0 size=N/A time=00:03:50.48 bitrate=N/A speed=3.15x    frame= 5565 fps= 75 q=-0.0 size=N/A time=00:03:52.10 bitrate=N/A speed=3.14x    frame= 5604 fps= 75 q=-0.0 size=N/A time=00:03:53.73 bitrate=N/A speed=3.15x    frame= 5644 fps= 75 q=-0.0 size=N/A time=00:03:55.40 bitrate=N/A speed=3.15x    frame= 5683 fps= 75 q=-0.0 size=N/A time=00:03:57.02 bitrate=N/A speed=3.15x    frame= 5721 fps= 75 q=-0.0 size=N/A time=00:03:58.61 bitrate=N/A speed=3.15x    frame= 5757 fps= 75 q=-0.0 size=N/A time=00:04:00.11 bitrate=N/A speed=3.14x    frame= 5788 fps= 75 q=-0.0 size=N/A time=00:04:01.40 bitrate=N/A speed=3.14x    frame= 5829 fps= 75 q=-0.0 size=N/A time=00:04:03.11 bitrate=N/A speed=3.14x    frame= 5869 fps= 75 q=-0.0 size=N/A time=00:04:04.78 bitrate=N/A speed=3.14x    frame= 5913 fps= 75 q=-0.0 size=N/A time=00:04:06.62 bitrate=N/A speed=3.14x    frame= 5946 fps= 75 q=-0.0 size=N/A time=00:04:07.99 bitrate=N/A speed=3.14x    frame= 5991 fps= 75 q=-0.0 size=N/A time=00:04:09.87 bitrate=N/A speed=3.14x    frame= 6027 fps= 75 q=-0.0 size=N/A time=00:04:11.37 bitrate=N/A speed=3.14x    frame= 6069 fps= 75 q=-0.0 size=N/A time=00:04:13.12 bitrate=N/A speed=3.14x    frame= 6110 fps= 75 q=-0.0 size=N/A time=00:04:14.83 bitrate=N/A speed=3.15x    frame= 6149 fps= 75 q=-0.0 size=N/A time=00:04:16.46 bitrate=N/A speed=3.15x    frame= 6188 fps= 75 q=-0.0 size=N/A time=00:04:18.09 bitrate=N/A speed=3.15x    frame= 6223 fps= 75 q=-0.0 size=N/A time=00:04:19.55 bitrate=N/A speed=3.14x    frame= 6266 fps= 75 q=-0.0 size=N/A time=00:04:21.34 bitrate=N/A speed=3.15x    frame= 6307 fps= 75 q=-0.0 size=N/A time=00:04:23.05 bitrate=N/A speed=3.15x    frame= 6340 fps= 75 q=-0.0 size=N/A time=00:04:24.43 bitrate=N/A speed=3.14x    frame= 6385 fps= 75 q=-0.0 size=N/A time=00:04:26.30 bitrate=N/A speed=3.15x    frame= 6426 fps= 75 q=-0.0 size=N/A time=00:04:28.01 bitrate=N/A speed=3.15x    frame= 6461 fps= 75 q=-0.0 size=N/A time=00:04:29.47 bitrate=N/A speed=3.15x    frame= 6499 fps= 75 q=-0.0 size=N/A time=00:04:31.06 bitrate=N/A speed=3.15x    frame= 6543 fps= 75 q=-0.0 size=N/A time=00:04:32.89 bitrate=N/A speed=3.15x    frame= 6580 fps= 75 q=-0.0 size=N/A time=00:04:34.44 bitrate=N/A speed=3.15x    frame= 6620 fps= 75 q=-0.0 size=N/A time=00:04:36.10 bitrate=N/A speed=3.15x    frame= 6657 fps= 75 q=-0.0 size=N/A time=00:04:37.65 bitrate=N/A speed=3.15x    frame= 6699 fps= 75 q=-0.0 size=N/A time=00:04:39.40 bitrate=N/A speed=3.15x    frame= 6734 fps= 75 q=-0.0 size=N/A time=00:04:40.86 bitrate=N/A speed=3.15x    frame= 6777 fps= 75 q=-0.0 size=N/A time=00:04:42.65 bitrate=N/A speed=3.15x    frame= 6815 fps= 75 q=-0.0 size=N/A time=00:04:44.24 bitrate=N/A speed=3.15x    frame= 6850 fps= 75 q=-0.0 size=N/A time=00:04:45.70 bitrate=N/A speed=3.15x    frame= 6889 fps= 75 q=-0.0 size=N/A time=00:04:47.32 bitrate=N/A speed=3.15x    frame= 6933 fps= 75 q=-0.0 size=N/A time=00:04:49.16 bitrate=N/A speed=3.15x    frame= 6973 fps= 75 q=-0.0 size=N/A time=00:04:50.83 bitrate=N/A speed=3.15x    frame= 7013 fps= 76 q=-0.0 size=N/A time=00:04:52.50 bitrate=N/A speed=3.15x    frame= 7049 fps= 75 q=-0.0 size=N/A time=00:04:54.00 bitrate=N/A speed=3.15x    frame= 7088 fps= 75 q=-0.0 size=N/A time=00:04:55.62 bitrate=N/A speed=3.15x    frame= 7125 fps= 75 q=-0.0 size=N/A time=00:04:57.17 bitrate=N/A speed=3.15x    frame= 7172 fps= 76 q=-0.0 size=N/A time=00:04:59.13 bitrate=N/A speed=3.15x    frame= 7212 fps= 76 q=-0.0 size=N/A time=00:05:00.80 bitrate=N/A speed=3.15x    frame= 7248 fps= 76 q=-0.0 size=N/A time=00:05:02.30 bitrate=N/A speed=3.15x    frame= 7283 fps= 75 q=-0.0 size=N/A time=00:05:03.76 bitrate=N/A speed=3.15x    frame= 7331 fps= 76 q=-0.0 size=N/A time=00:05:05.76 bitrate=N/A speed=3.15x    frame= 7368 fps= 76 q=-0.0 size=N/A time=00:05:07.30 bitrate=N/A speed=3.15x    frame= 7406 fps= 76 q=-0.0 size=N/A time=00:05:08.89 bitrate=N/A speed=3.15x    frame= 7446 fps= 76 q=-0.0 size=N/A time=00:05:10.56 bitrate=N/A speed=3.15x    frame= 7484 fps= 76 q=-0.0 size=N/A time=00:05:12.14 bitrate=N/A speed=3.15x    frame= 7517 fps= 75 q=-0.0 size=N/A time=00:05:13.52 bitrate=N/A speed=3.15x    frame= 7562 fps= 76 q=-0.0 size=N/A time=00:05:15.39 bitrate=N/A speed=3.15x    frame= 7600 fps= 76 q=-0.0 size=N/A time=00:05:16.98 bitrate=N/A speed=3.15x    frame= 7638 fps= 76 q=-0.0 size=N/A time=00:05:18.56 bitrate=N/A speed=3.15x    frame= 7676 fps= 76 q=-0.0 size=N/A time=00:05:20.15 bitrate=N/A speed=3.15x    frame= 7716 fps= 76 q=-0.0 size=N/A time=00:05:21.82 bitrate=N/A speed=3.15x    frame= 7756 fps= 76 q=-0.0 size=N/A time=00:05:23.48 bitrate=N/A speed=3.15x    frame= 7794 fps= 76 q=-0.0 size=N/A time=00:05:25.07 bitrate=N/A speed=3.15x    frame= 7834 fps= 76 q=-0.0 size=N/A time=00:05:26.74 bitrate=N/A speed=3.15x    frame= 7873 fps= 76 q=-0.0 size=N/A time=00:05:28.36 bitrate=N/A speed=3.15x    frame= 7911 fps= 76 q=-0.0 size=N/A time=00:05:29.95 bitrate=N/A speed=3.15x    frame= 7951 fps= 76 q=-0.0 size=N/A time=00:05:31.62 bitrate=N/A speed=3.15x    frame= 7992 fps= 76 q=-0.0 size=N/A time=00:05:33.33 bitrate=N/A speed=3.15x    frame= 8030 fps= 76 q=-0.0 size=N/A time=00:05:34.91 bitrate=N/A speed=3.15x    frame= 8070 fps= 76 q=-0.0 size=N/A time=00:05:36.58 bitrate=N/A speed=3.15x    frame= 8101 fps= 75 q=-0.0 size=N/A time=00:05:37.87 bitrate=N/A speed=3.15x    frame= 8149 fps= 76 q=-0.0 size=N/A time=00:05:39.88 bitrate=N/A speed=3.15x    frame= 8187 fps= 76 q=-0.0 size=N/A time=00:05:41.46 bitrate=N/A speed=3.15x    frame= 8227 fps= 76 q=-0.0 size=N/A time=00:05:43.13 bitrate=N/A speed=3.15x    frame= 8266 fps= 76 q=-0.0 size=N/A time=00:05:44.76 bitrate=N/A speed=3.15x    frame= 8300 fps= 76 q=-0.0 size=N/A time=00:05:46.17 bitrate=N/A speed=3.15x    frame= 8344 fps= 76 q=-0.0 size=N/A time=00:05:48.01 bitrate=N/A speed=3.15x    frame= 8381 fps= 76 q=-0.0 size=N/A time=00:05:49.55 bitrate=N/A speed=3.15x    frame= 8418 fps= 76 q=-0.0 size=N/A time=00:05:51.10 bitrate=N/A speed=3.15x    frame= 8463 fps= 76 q=-0.0 size=N/A time=00:05:52.97 bitrate=N/A speed=3.15x    frame= 8502 fps= 76 q=-0.0 size=N/A time=00:05:54.60 bitrate=N/A speed=3.15x    frame= 8542 fps= 76 q=-0.0 size=N/A time=00:05:56.27 bitrate=N/A speed=3.15x    frame= 8579 fps= 76 q=-0.0 size=N/A time=00:05:57.81 bitrate=N/A speed=3.15x    frame= 8615 fps= 76 q=-0.0 size=N/A time=00:05:59.31 bitrate=N/A speed=3.15x    frame= 8662 fps= 76 q=-0.0 size=N/A time=00:06:01.27 bitrate=N/A speed=3.15x    frame= 8700 fps= 76 q=-0.0 size=N/A time=00:06:02.86 bitrate=N/A speed=3.15x    frame= 8741 fps= 76 q=-0.0 size=N/A time=00:06:04.57 bitrate=N/A speed=3.15x    frame= 8779 fps= 76 q=-0.0 size=N/A time=00:06:06.15 bitrate=N/A speed=3.15x    frame= 8818 fps= 76 q=-0.0 size=N/A time=00:06:07.78 bitrate=N/A speed=3.15x    frame= 8858 fps= 76 q=-0.0 size=N/A time=00:06:09.45 bitrate=N/A speed=3.15x    frame= 8895 fps= 76 q=-0.0 size=N/A time=00:06:10.99 bitrate=N/A speed=3.15x    frame= 8935 fps= 76 q=-0.0 size=N/A time=00:06:12.66 bitrate=N/A speed=3.15x    frame= 8974 fps= 76 q=-0.0 size=N/A time=00:06:14.29 bitrate=N/A speed=3.15x    frame= 9013 fps= 76 q=-0.0 size=N/A time=00:06:15.91 bitrate=N/A speed=3.15x    frame= 9053 fps= 76 q=-0.0 size=N/A time=00:06:17.58 bitrate=N/A speed=3.15x    frame= 9093 fps= 76 q=-0.0 size=N/A time=00:06:19.25 bitrate=N/A speed=3.15x    frame= 9128 fps= 76 q=-0.0 size=N/A time=00:06:20.71 bitrate=N/A speed=3.15x    frame= 9171 fps= 76 q=-0.0 size=N/A time=00:06:22.50 bitrate=N/A speed=3.15x    frame= 9210 fps= 76 q=-0.0 size=N/A time=00:06:24.13 bitrate=N/A speed=3.15x    frame= 9250 fps= 76 q=-0.0 size=N/A time=00:06:25.80 bitrate=N/A speed=3.16x    frame= 9284 fps= 76 q=-0.0 size=N/A time=00:06:27.22 bitrate=N/A speed=3.15x    frame= 9326 fps= 76 q=-0.0 size=N/A time=00:06:28.97 bitrate=N/A speed=3.15x    frame= 9370 fps= 76 q=-0.0 size=N/A time=00:06:30.80 bitrate=N/A speed=3.16x    frame= 9407 fps= 76 q=-0.0 size=N/A time=00:06:32.35 bitrate=N/A speed=3.16x    frame= 9443 fps= 76 q=-0.0 size=N/A time=00:06:33.85 bitrate=N/A speed=3.15x    frame= 9487 fps= 76 q=-0.0 size=N/A time=00:06:35.68 bitrate=N/A speed=3.16x    frame= 9529 fps= 76 q=-0.0 size=N/A time=00:06:37.43 bitrate=N/A speed=3.16x    frame= 9568 fps= 76 q=-0.0 size=N/A time=00:06:39.06 bitrate=N/A speed=3.16x    frame= 9608 fps= 76 q=-0.0 size=N/A time=00:06:40.73 bitrate=N/A speed=3.16x    frame= 9646 fps= 76 q=-0.0 size=N/A time=00:06:42.31 bitrate=N/A speed=3.16x    frame= 9678 fps= 76 q=-0.0 size=N/A time=00:06:43.65 bitrate=N/A speed=3.15x    frame= 9727 fps= 76 q=-0.0 size=N/A time=00:06:45.69 bitrate=N/A speed=3.16x    frame= 9762 fps= 76 q=-0.0 size=N/A time=00:06:47.15 bitrate=N/A speed=3.16x    frame= 9804 fps= 76 q=-0.0 size=N/A time=00:06:48.90 bitrate=N/A speed=3.16x    frame= 9842 fps= 76 q=-0.0 size=N/A time=00:06:50.49 bitrate=N/A speed=3.16x    frame= 9881 fps= 76 q=-0.0 size=N/A time=00:06:52.12 bitrate=N/A speed=3.16x    frame= 9919 fps= 76 q=-0.0 size=N/A time=00:06:53.70 bitrate=N/A speed=3.16x    frame= 9953 fps= 76 q=-0.0 size=N/A time=00:06:55.12 bitrate=N/A speed=3.16x    frame=10000 fps= 76 q=-0.0 size=N/A time=00:06:57.08 bitrate=N/A speed=3.16x    frame=10036 fps= 76 q=-0.0 size=N/A time=00:06:58.58 bitrate=N/A speed=3.16x    frame=10072 fps= 76 q=-0.0 size=N/A time=00:07:00.08 bitrate=N/A speed=3.16x    frame=10119 fps= 76 q=-0.0 size=N/A time=00:07:02.04 bitrate=N/A speed=3.16x    frame=10158 fps= 76 q=-0.0 size=N/A time=00:07:03.67 bitrate=N/A speed=3.16x    frame=10198 fps= 76 q=-0.0 size=N/A time=00:07:05.34 bitrate=N/A speed=3.16x    frame=10237 fps= 76 q=-0.0 size=N/A time=00:07:06.96 bitrate=N/A speed=3.16x    frame=10278 fps= 76 q=-0.0 size=N/A time=00:07:08.67 bitrate=N/A speed=3.16x    frame=10314 fps= 76 q=-0.0 size=N/A time=00:07:10.17 bitrate=N/A speed=3.16x    frame=10360 fps= 76 q=-0.0 size=N/A time=00:07:12.09 bitrate=N/A speed=3.16x    frame=10398 fps= 76 q=-0.0 size=N/A time=00:07:13.68 bitrate=N/A speed=3.16x    frame=10436 fps= 76 q=-0.0 size=N/A time=00:07:15.26 bitrate=N/A speed=3.16x    frame=10477 fps= 76 q=-0.0 size=N/A time=00:07:16.97 bitrate=N/A speed=3.16x    frame=10508 fps= 76 q=-0.0 size=N/A time=00:07:18.27 bitrate=N/A speed=3.16x    frame=10555 fps= 76 q=-0.0 size=N/A time=00:07:20.23 bitrate=N/A speed=3.16x    frame=10594 fps= 76 q=-0.0 size=N/A time=00:07:21.85 bitrate=N/A speed=3.16x    frame=10633 fps= 76 q=-0.0 size=N/A time=00:07:23.48 bitrate=N/A speed=3.16x    frame=10672 fps= 76 q=-0.0 size=N/A time=00:07:25.11 bitrate=N/A speed=3.16x    frame=10706 fps= 76 q=-0.0 size=N/A time=00:07:26.52 bitrate=N/A speed=3.16x    frame=10751 fps= 76 q=-0.0 size=N/A time=00:07:28.40 bitrate=N/A speed=3.16x    frame=10789 fps= 76 q=-0.0 size=N/A time=00:07:29.99 bitrate=N/A speed=3.16x    frame=10828 fps= 76 q=-0.0 size=N/A time=00:07:31.61 bitrate=N/A speed=3.16x    frame=10858 fps= 76 q=-0.0 size=N/A time=00:07:32.86 bitrate=N/A speed=3.16x    frame=10895 fps= 76 q=-0.0 size=N/A time=00:07:34.41 bitrate=N/A speed=3.16x    frame=10934 fps= 76 q=-0.0 size=N/A time=00:07:36.03 bitrate=N/A speed=3.16x    frame=10975 fps= 76 q=-0.0 size=N/A time=00:07:37.74 bitrate=N/A speed=3.16x    frame=11019 fps= 76 q=-0.0 size=N/A time=00:07:39.58 bitrate=N/A speed=3.16x    frame=11059 fps= 76 q=-0.0 size=N/A time=00:07:41.25 bitrate=N/A speed=3.16x    frame=11098 fps= 76 q=-0.0 size=N/A time=00:07:42.87 bitrate=N/A speed=3.16x    frame=11138 fps= 76 q=-0.0 size=N/A time=00:07:44.54 bitrate=N/A speed=3.16x    frame=11176 fps= 76 q=-0.0 size=N/A time=00:07:46.13 bitrate=N/A speed=3.16x    frame=11210 fps= 76 q=-0.0 size=N/A time=00:07:47.55 bitrate=N/A speed=3.16x    frame=11255 fps= 76 q=-0.0 size=N/A time=00:07:49.42 bitrate=N/A speed=3.16x    frame=11294 fps= 76 q=-0.0 size=N/A time=00:07:51.05 bitrate=N/A speed=3.16x    frame=11333 fps= 76 q=-0.0 size=N/A time=00:07:52.68 bitrate=N/A speed=3.16x    frame=11372 fps= 76 q=-0.0 size=N/A time=00:07:54.30 bitrate=N/A speed=3.16x    frame=11410 fps= 76 q=-0.0 size=N/A time=00:07:55.89 bitrate=N/A speed=3.16x    frame=11449 fps= 76 q=-0.0 size=N/A time=00:07:57.51 bitrate=N/A speed=3.16x    frame=11487 fps= 76 q=-0.0 size=N/A time=00:07:59.10 bitrate=N/A speed=3.16x    frame=11526 fps= 76 q=-0.0 size=N/A time=00:08:00.73 bitrate=N/A speed=3.16x    frame=11564 fps= 76 q=-0.0 size=N/A time=00:08:02.31 bitrate=N/A speed=3.16x    frame=11597 fps= 76 q=-0.0 size=N/A time=00:08:03.69 bitrate=N/A speed=3.16x    frame=11639 fps= 76 q=-0.0 size=N/A time=00:08:05.44 bitrate=N/A speed=3.16x    frame=11682 fps= 76 q=-0.0 size=N/A time=00:08:07.23 bitrate=N/A speed=3.16x    frame=11720 fps= 76 q=-0.0 size=N/A time=00:08:08.82 bitrate=N/A speed=3.16x    frame=11753 fps= 76 q=-0.0 size=N/A time=00:08:10.19 bitrate=N/A speed=3.16x    frame=11791 fps= 76 q=-0.0 size=N/A time=00:08:11.78 bitrate=N/A speed=3.16x    frame=11826 fps= 76 q=-0.0 size=N/A time=00:08:13.24 bitrate=N/A speed=3.16x    frame=11876 fps= 76 q=-0.0 size=N/A time=00:08:15.32 bitrate=N/A speed=3.16x    frame=11913 fps= 76 q=-0.0 size=N/A time=00:08:16.87 bitrate=N/A speed=3.16x    frame=11948 fps= 76 q=-0.0 size=N/A time=00:08:18.33 bitrate=N/A speed=3.16x    frame=11990 fps= 76 q=-0.0 size=N/A time=00:08:20.08 bitrate=N/A speed=3.16x    frame=12028 fps= 76 q=-0.0 size=N/A time=00:08:21.66 bitrate=N/A speed=3.16x    frame=12061 fps= 76 q=-0.0 size=N/A time=00:08:23.04 bitrate=N/A speed=3.16x    frame=12106 fps= 76 q=-0.0 size=N/A time=00:08:24.92 bitrate=N/A speed=3.16x    frame=12144 fps= 76 q=-0.0 size=N/A time=00:08:26.50 bitrate=N/A speed=3.16x    frame=12175 fps= 76 q=-0.0 size=N/A time=00:08:27.79 bitrate=N/A speed=3.15x    frame=12212 fps= 76 q=-0.0 size=N/A time=00:08:29.34 bitrate=N/A speed=3.15x    frame=12258 fps= 76 q=-0.0 size=N/A time=00:08:31.26 bitrate=N/A speed=3.16x    frame=12293 fps= 76 q=-0.0 size=N/A time=00:08:32.72 bitrate=N/A speed=3.15x    frame=12321 fps= 76 q=-0.0 size=N/A time=00:08:33.88 bitrate=N/A speed=3.15x    frame=12364 fps= 76 q=-0.0 size=N/A time=00:08:35.68 bitrate=N/A speed=3.15x    frame=12411 fps= 76 q=-0.0 size=N/A time=00:08:37.64 bitrate=N/A speed=3.15x    frame=12449 fps= 76 q=-0.0 size=N/A time=00:08:39.22 bitrate=N/A speed=3.15x    frame=12481 fps= 76 q=-0.0 size=N/A time=00:08:40.56 bitrate=N/A speed=3.15x    frame=12525 fps= 76 q=-0.0 size=N/A time=00:08:42.39 bitrate=N/A speed=3.15x    frame=12562 fps= 76 q=-0.0 size=N/A time=00:08:43.94 bitrate=N/A speed=3.15x    frame=12598 fps= 76 q=-0.0 size=N/A time=00:08:45.44 bitrate=N/A speed=3.15x    frame=12645 fps= 76 q=-0.0 size=N/A time=00:08:47.40 bitrate=N/A speed=3.16x    frame=12683 fps= 76 q=-0.0 size=N/A time=00:08:48.98 bitrate=N/A speed=3.15x    frame=12723 fps= 76 q=-0.0 size=N/A time=00:08:50.65 bitrate=N/A speed=3.16x    frame=12762 fps= 76 q=-0.0 size=N/A time=00:08:52.28 bitrate=N/A speed=3.16x    frame=12803 fps= 76 q=-0.0 size=N/A time=00:08:53.99 bitrate=N/A speed=3.16x    frame=12841 fps= 76 q=-0.0 size=N/A time=00:08:55.57 bitrate=N/A speed=3.16x    frame=12879 fps= 76 q=-0.0 size=N/A time=00:08:57.16 bitrate=N/A speed=3.16x    frame=12916 fps= 76 q=-0.0 size=N/A time=00:08:58.70 bitrate=N/A speed=3.15x    frame=12954 fps= 76 q=-0.0 size=N/A time=00:09:00.28 bitrate=N/A speed=3.15x    frame=12993 fps= 76 q=-0.0 size=N/A time=00:09:01.91 bitrate=N/A speed=3.15x    frame=13028 fps= 76 q=-0.0 size=N/A time=00:09:03.37 bitrate=N/A speed=3.15x    frame=13071 fps= 76 q=-0.0 size=N/A time=00:09:05.16 bitrate=N/A speed=3.15x    frame=13109 fps= 76 q=-0.0 size=N/A time=00:09:06.75 bitrate=N/A speed=3.15x    frame=13150 fps= 76 q=-0.0 size=N/A time=00:09:08.46 bitrate=N/A speed=3.15x    frame=13189 fps= 76 q=-0.0 size=N/A time=00:09:10.09 bitrate=N/A speed=3.15x    frame=13230 fps= 76 q=-0.0 size=N/A time=00:09:11.80 bitrate=N/A speed=3.15x    frame=13269 fps= 76 q=-0.0 size=N/A time=00:09:13.42 bitrate=N/A speed=3.16x    frame=13310 fps= 76 q=-0.0 size=N/A time=00:09:15.13 bitrate=N/A speed=3.16x    frame=13348 fps= 76 q=-0.0 size=N/A time=00:09:16.72 bitrate=N/A speed=3.16x    frame=13388 fps= 76 q=-0.0 size=N/A time=00:09:18.39 bitrate=N/A speed=3.16x    frame=13426 fps= 76 q=-0.0 size=N/A time=00:09:19.97 bitrate=N/A speed=3.16x    frame=13460 fps= 76 q=-0.0 size=N/A time=00:09:21.39 bitrate=N/A speed=3.15x    frame=13506 fps= 76 q=-0.0 size=N/A time=00:09:23.31 bitrate=N/A speed=3.16x    frame=13546 fps= 76 q=-0.0 size=N/A time=00:09:24.98 bitrate=N/A speed=3.16x    frame=13577 fps= 76 q=-0.0 size=N/A time=00:09:26.27 bitrate=N/A speed=3.15x    frame=13617 fps= 76 q=-0.0 size=N/A time=00:09:27.94 bitrate=N/A speed=3.15x    frame=13665 fps= 76 q=-0.0 size=N/A time=00:09:29.94 bitrate=N/A speed=3.16x    frame=13703 fps= 76 q=-0.0 size=N/A time=00:09:31.52 bitrate=N/A speed=3.16x    frame=13743 fps= 76 q=-0.0 size=N/A time=00:09:33.19 bitrate=N/A speed=3.16x    frame=13780 fps= 76 q=-0.0 size=N/A time=00:09:34.74 bitrate=N/A speed=3.16x    frame=13817 fps= 76 q=-0.0 size=N/A time=00:09:36.28 bitrate=N/A speed=3.16x    frame=13855 fps= 76 q=-0.0 size=N/A time=00:09:37.86 bitrate=N/A speed=3.16x    frame=13897 fps= 76 q=-0.0 size=N/A time=00:09:39.62 bitrate=N/A speed=3.16x    frame=13936 fps= 76 q=-0.0 size=N/A time=00:09:41.24 bitrate=N/A speed=3.16x    frame=13973 fps= 76 q=-0.0 size=N/A time=00:09:42.79 bitrate=N/A speed=3.16x    frame=14016 fps= 76 q=-0.0 size=N/A time=00:09:44.58 bitrate=N/A speed=3.16x    frame=14056 fps= 76 q=-0.0 size=N/A time=00:09:46.25 bitrate=N/A speed=3.16x    frame=14096 fps= 76 q=-0.0 size=N/A time=00:09:47.92 bitrate=N/A speed=3.16x    frame=14130 fps= 76 q=-0.0 size=N/A time=00:09:49.33 bitrate=N/A speed=3.16x    frame=14176 fps= 76 q=-0.0 size=N/A time=00:09:51.25 bitrate=N/A speed=3.16x    frame=14210 fps= 76 q=-0.0 size=N/A time=00:09:52.67 bitrate=N/A speed=3.16x    frame=14255 fps= 76 q=-0.0 size=N/A time=00:09:54.55 bitrate=N/A speed=3.16x    frame=14290 fps= 76 q=-0.0 size=N/A time=00:09:56.01 bitrate=N/A speed=3.16x    frame=14334 fps= 76 q=-0.0 size=N/A time=00:09:57.84 bitrate=N/A speed=3.16x    frame=14369 fps= 76 q=-0.0 size=N/A time=00:09:59.30 bitrate=N/A speed=3.16x    frame=14410 fps= 76 q=-0.0 size=N/A time=00:10:01.01 bitrate=N/A speed=3.16x    frame=14450 fps= 76 q=-0.0 size=N/A time=00:10:02.68 bitrate=N/A speed=3.16x    frame=14479 fps= 76 q=-0.0 size=N/A time=00:10:03.89 bitrate=N/A speed=3.16x    frame=14527 fps= 76 q=-0.0 size=N/A time=00:10:05.89 bitrate=N/A speed=3.16x    frame=14564 fps= 76 q=-0.0 size=N/A time=00:10:07.44 bitrate=N/A speed=3.16x    frame=14603 fps= 76 q=-0.0 size=N/A time=00:10:09.06 bitrate=N/A speed=3.16x    frame=14639 fps= 76 q=-0.0 size=N/A time=00:10:10.56 bitrate=N/A speed=3.16x    frame=14680 fps= 76 q=-0.0 size=N/A time=00:10:12.27 bitrate=N/A speed=3.16x    frame=14720 fps= 76 q=-0.0 size=N/A time=00:10:13.94 bitrate=N/A speed=3.16x    frame=14757 fps= 76 q=-0.0 size=N/A time=00:10:15.48 bitrate=N/A speed=3.16x    frame=14792 fps= 76 q=-0.0 size=N/A time=00:10:16.94 bitrate=N/A speed=3.16x    frame=14838 fps= 76 q=-0.0 size=N/A time=00:10:18.86 bitrate=N/A speed=3.16x    frame=14878 fps= 76 q=-0.0 size=N/A time=00:10:20.53 bitrate=N/A speed=3.16x    frame=14918 fps= 76 q=-0.0 size=N/A time=00:10:22.20 bitrate=N/A speed=3.16x    frame=14959 fps= 76 q=-0.0 size=N/A time=00:10:23.91 bitrate=N/A speed=3.16x    frame=14990 fps= 76 q=-0.0 size=N/A time=00:10:25.20 bitrate=N/A speed=3.16x    frame=15032 fps= 76 q=-0.0 size=N/A time=00:10:26.95 bitrate=N/A speed=3.16x    frame=15078 fps= 76 q=-0.0 size=N/A time=00:10:28.87 bitrate=N/A speed=3.16x    frame=15117 fps= 76 q=-0.0 size=N/A time=00:10:30.50 bitrate=N/A speed=3.16x    frame=15156 fps= 76 q=-0.0 size=N/A time=00:10:32.13 bitrate=N/A speed=3.16x    frame=15194 fps= 76 q=-0.0 size=N/A time=00:10:33.71 bitrate=N/A speed=3.16x    frame=15235 fps= 76 q=-0.0 size=N/A time=00:10:35.42 bitrate=N/A speed=3.16x    frame=15272 fps= 76 q=-0.0 size=N/A time=00:10:36.96 bitrate=N/A speed=3.16x    frame=15311 fps= 76 q=-0.0 size=N/A time=00:10:38.59 bitrate=N/A speed=3.16x    frame=15341 fps= 76 q=-0.0 size=N/A time=00:10:39.84 bitrate=N/A speed=3.16x    frame=15386 fps= 76 q=-0.0 size=N/A time=00:10:41.72 bitrate=N/A speed=3.16x    frame=15426 fps= 76 q=-0.0 size=N/A time=00:10:43.39 bitrate=N/A speed=3.16x    frame=15463 fps= 76 q=-0.0 size=N/A time=00:10:44.93 bitrate=N/A speed=3.16x    frame=15495 fps= 76 q=-0.0 size=N/A time=00:10:46.27 bitrate=N/A speed=3.16x    frame=15541 fps= 76 q=-0.0 size=N/A time=00:10:48.18 bitrate=N/A speed=3.16x    frame=15573 fps= 76 q=-0.0 size=N/A time=00:10:49.52 bitrate=N/A speed=3.16x    frame=15619 fps= 76 q=-0.0 size=N/A time=00:10:51.44 bitrate=N/A speed=3.16x    frame=15657 fps= 76 q=-0.0 size=N/A time=00:10:53.02 bitrate=N/A speed=3.16x    frame=15696 fps= 76 q=-0.0 size=N/A time=00:10:54.65 bitrate=N/A speed=3.16x    frame=15735 fps= 76 q=-0.0 size=N/A time=00:10:56.28 bitrate=N/A speed=3.16x    frame=15773 fps= 76 q=-0.0 size=N/A time=00:10:57.86 bitrate=N/A speed=3.16x    frame=15809 fps= 76 q=-0.0 size=N/A time=00:10:59.36 bitrate=N/A speed=3.16x    frame=15851 fps= 76 q=-0.0 size=N/A time=00:11:01.11 bitrate=N/A speed=3.16x    frame=15889 fps= 76 q=-0.0 size=N/A time=00:11:02.70 bitrate=N/A speed=3.16x    frame=15922 fps= 76 q=-0.0 size=N/A time=00:11:04.08 bitrate=N/A speed=3.16x    frame=15955 fps= 76 q=-0.0 size=N/A time=00:11:05.45 bitrate=N/A speed=3.15x    frame=16002 fps= 76 q=-0.0 size=N/A time=00:11:07.41 bitrate=N/A speed=3.16x    frame=16047 fps= 76 q=-0.0 size=N/A time=00:11:09.29 bitrate=N/A speed=3.16x    frame=16086 fps= 76 q=-0.0 size=N/A time=00:11:10.92 bitrate=N/A speed=3.16x    frame=16126 fps= 76 q=-0.0 size=N/A time=00:11:12.58 bitrate=N/A speed=3.16x    frame=16163 fps= 76 q=-0.0 size=N/A time=00:11:14.13 bitrate=N/A speed=3.16x    frame=16200 fps= 76 q=-0.0 size=N/A time=00:11:15.67 bitrate=N/A speed=3.16x    frame=16241 fps= 76 q=-0.0 size=N/A time=00:11:17.38 bitrate=N/A speed=3.16x    frame=16278 fps= 76 q=-0.0 size=N/A time=00:11:18.92 bitrate=N/A speed=3.16x    frame=16318 fps= 76 q=-0.0 size=N/A time=00:11:20.59 bitrate=N/A speed=3.16x    frame=16356 fps= 76 q=-0.0 size=N/A time=00:11:22.18 bitrate=N/A speed=3.16x    frame=16386 fps= 76 q=-0.0 size=N/A time=00:11:23.43 bitrate=N/A speed=3.15x    frame=16432 fps= 76 q=-0.0 size=N/A time=00:11:25.35 bitrate=N/A speed=3.16x    frame=16472 fps= 76 q=-0.0 size=N/A time=00:11:27.01 bitrate=N/A speed=3.16x    frame=16511 fps= 76 q=-0.0 size=N/A time=00:11:28.64 bitrate=N/A speed=3.16x    frame=16546 fps= 76 q=-0.0 size=N/A time=00:11:30.10 bitrate=N/A speed=3.16x    frame=16589 fps= 76 q=-0.0 size=N/A time=00:11:31.89 bitrate=N/A speed=3.16x    frame=16629 fps= 76 q=-0.0 size=N/A time=00:11:33.56 bitrate=N/A speed=3.16x    frame=16665 fps= 76 q=-0.0 size=N/A time=00:11:35.06 bitrate=N/A speed=3.16x    frame=16708 fps= 76 q=-0.0 size=N/A time=00:11:36.86 bitrate=N/A speed=3.16x    frame=16743 fps= 76 q=-0.0 size=N/A time=00:11:38.32 bitrate=N/A speed=3.16x    frame=16779 fps= 76 q=-0.0 size=N/A time=00:11:39.82 bitrate=N/A speed=3.15x    frame=16826 fps= 76 q=-0.0 size=N/A time=00:11:41.78 bitrate=N/A speed=3.16x    frame=16865 fps= 76 q=-0.0 size=N/A time=00:11:43.41 bitrate=N/A speed=3.16x    frame=16904 fps= 76 q=-0.0 size=N/A time=00:11:45.03 bitrate=N/A speed=3.16x    frame=16941 fps= 76 q=-0.0 size=N/A time=00:11:46.58 bitrate=N/A speed=3.16x    frame=16976 fps= 76 q=-0.0 size=N/A time=00:11:48.04 bitrate=N/A speed=3.16x    frame=17011 fps= 76 q=-0.0 size=N/A time=00:11:49.50 bitrate=N/A speed=3.15x    frame=17053 fps= 76 q=-0.0 size=N/A time=00:11:51.25 bitrate=N/A speed=3.16x    frame=17091 fps= 76 q=-0.0 size=N/A time=00:11:52.83 bitrate=N/A speed=3.15x    frame=17124 fps= 76 q=-0.0 size=N/A time=00:11:54.21 bitrate=N/A speed=3.15x    frame=17169 fps= 76 q=-0.0 size=N/A time=00:11:56.09 bitrate=N/A speed=3.15x    frame=17208 fps= 76 q=-0.0 size=N/A time=00:11:57.71 bitrate=N/A speed=3.15x    frame=17245 fps= 76 q=-0.0 size=N/A time=00:11:59.26 bitrate=N/A speed=3.15x    frame=17285 fps= 76 q=-0.0 size=N/A time=00:12:00.92 bitrate=N/A speed=3.15x    frame=17325 fps= 76 q=-0.0 size=N/A time=00:12:02.59 bitrate=N/A speed=3.15x    frame=17361 fps= 76 q=-0.0 size=N/A time=00:12:04.09 bitrate=N/A speed=3.15x    frame=17399 fps= 76 q=-0.0 size=N/A time=00:12:05.68 bitrate=N/A speed=3.15x    frame=17428 fps= 76 q=-0.0 size=N/A time=00:12:06.89 bitrate=N/A speed=3.15x    frame=17483 fps= 76 q=-0.0 size=N/A time=00:12:09.18 bitrate=N/A speed=3.16x    frame=17522 fps= 76 q=-0.0 size=N/A time=00:12:10.81 bitrate=N/A speed=3.16x    frame=17561 fps= 76 q=-0.0 size=N/A time=00:12:12.44 bitrate=N/A speed=3.16x    frame=17601 fps= 76 q=-0.0 size=N/A time=00:12:14.10 bitrate=N/A speed=3.16x    frame=17642 fps= 76 q=-0.0 size=N/A time=00:12:15.81 bitrate=N/A speed=3.16x    frame=17680 fps= 76 q=-0.0 size=N/A time=00:12:17.40 bitrate=N/A speed=3.16x    frame=17720 fps= 76 q=-0.0 size=N/A time=00:12:19.07 bitrate=N/A speed=3.16x    frame=17757 fps= 76 q=-0.0 size=N/A time=00:12:20.61 bitrate=N/A speed=3.16x    frame=17795 fps= 76 q=-0.0 size=N/A time=00:12:22.19 bitrate=N/A speed=3.16x    frame=17828 fps= 76 q=-0.0 size=N/A time=00:12:23.57 bitrate=N/A speed=3.15x    frame=17872 fps= 76 q=-0.0 size=N/A time=00:12:25.41 bitrate=N/A speed=3.16x    frame=17909 fps= 76 q=-0.0 size=N/A time=00:12:26.95 bitrate=N/A speed=3.15x    frame=17945 fps= 76 q=-0.0 size=N/A time=00:12:28.45 bitrate=N/A speed=3.15x    frame=17974 fps= 76 q=-0.0 size=N/A time=00:12:29.66 bitrate=N/A speed=3.15x    frame=18025 fps= 76 q=-0.0 size=N/A time=00:12:31.79 bitrate=N/A speed=3.15x    frame=18068 fps= 76 q=-0.0 size=N/A time=00:12:33.58 bitrate=N/A speed=3.15x    frame=18106 fps= 76 q=-0.0 size=N/A time=00:12:35.17 bitrate=N/A speed=3.15x    frame=18141 fps= 76 q=-0.0 size=N/A time=00:12:36.63 bitrate=N/A speed=3.15x    frame=18186 fps= 76 q=-0.0 size=N/A time=00:12:38.50 bitrate=N/A speed=3.15x    frame=18226 fps= 76 q=-0.0 size=N/A time=00:12:40.17 bitrate=N/A speed=3.16x    frame=18266 fps= 76 q=-0.0 size=N/A time=00:12:41.84 bitrate=N/A speed=3.16x    frame=18305 fps= 76 q=-0.0 size=N/A time=00:12:43.47 bitrate=N/A speed=3.16x    frame=18345 fps= 76 q=-0.0 size=N/A time=00:12:45.13 bitrate=N/A speed=3.16x    frame=18383 fps= 76 q=-0.0 size=N/A time=00:12:46.72 bitrate=N/A speed=3.16x    frame=18423 fps= 76 q=-0.0 size=N/A time=00:12:48.39 bitrate=N/A speed=3.16x    frame=18462 fps= 76 q=-0.0 size=N/A time=00:12:50.01 bitrate=N/A speed=3.16x    frame=18501 fps= 76 q=-0.0 size=N/A time=00:12:51.64 bitrate=N/A speed=3.16x    frame=18539 fps= 76 q=-0.0 size=N/A time=00:12:53.23 bitrate=N/A speed=3.16x    frame=18572 fps= 76 q=-0.0 size=N/A time=00:12:54.60 bitrate=N/A speed=3.15x    frame=18608 fps= 76 q=-0.0 size=N/A time=00:12:56.10 bitrate=N/A speed=3.15x    frame=18653 fps= 76 q=-0.0 size=N/A time=00:12:57.98 bitrate=N/A speed=3.15x    frame=18691 fps= 76 q=-0.0 size=N/A time=00:12:59.57 bitrate=N/A speed=3.15x    frame=18726 fps= 76 q=-0.0 size=N/A time=00:13:01.03 bitrate=N/A speed=3.15x    frame=18769 fps= 76 q=-0.0 size=N/A time=00:13:02.82 bitrate=N/A speed=3.15x    frame=18809 fps= 76 q=-0.0 size=N/A time=00:13:04.49 bitrate=N/A speed=3.15x    frame=18847 fps= 76 q=-0.0 size=N/A time=00:13:06.07 bitrate=N/A speed=3.15x    frame=18889 fps= 76 q=-0.0 size=N/A time=00:13:07.82 bitrate=N/A speed=3.15x    frame=18928 fps= 76 q=-0.0 size=N/A time=00:13:09.45 bitrate=N/A speed=3.15x    frame=18967 fps= 76 q=-0.0 size=N/A time=00:13:11.08 bitrate=N/A speed=3.15x    frame=19000 fps= 76 q=-0.0 size=N/A time=00:13:12.45 bitrate=N/A speed=3.15x    frame=19033 fps= 76 q=-0.0 size=N/A time=00:13:13.83 bitrate=N/A speed=3.15x    frame=19085 fps= 76 q=-0.0 size=N/A time=00:13:16.00 bitrate=N/A speed=3.16x    frame=19125 fps= 76 q=-0.0 size=N/A time=00:13:17.67 bitrate=N/A speed=3.16x    frame=19157 fps= 76 q=-0.0 size=N/A time=00:13:19.00 bitrate=N/A speed=3.15x    frame=19204 fps= 76 q=-0.0 size=N/A time=00:13:20.96 bitrate=N/A speed=3.16x    frame=19244 fps= 76 q=-0.0 size=N/A time=00:13:22.63 bitrate=N/A speed=3.16x    frame=19281 fps= 76 q=-0.0 size=N/A time=00:13:24.17 bitrate=N/A speed=3.16x    frame=19319 fps= 76 q=-0.0 size=N/A time=00:13:25.76 bitrate=N/A speed=3.16x    frame=19355 fps= 76 q=-0.0 size=N/A time=00:13:27.26 bitrate=N/A speed=3.15x    frame=19397 fps= 76 q=-0.0 size=N/A time=00:13:29.01 bitrate=N/A speed=3.16x    frame=19436 fps= 76 q=-0.0 size=N/A time=00:13:30.64 bitrate=N/A speed=3.15x    frame=19475 fps= 76 q=-0.0 size=N/A time=00:13:32.26 bitrate=N/A speed=3.16x    frame=19510 fps= 76 q=-0.0 size=N/A time=00:13:33.72 bitrate=N/A speed=3.15x    frame=19546 fps= 76 q=-0.0 size=N/A time=00:13:35.23 bitrate=N/A speed=3.15x    frame=19592 fps= 76 q=-0.0 size=N/A time=00:13:37.14 bitrate=N/A speed=3.15x    frame=19629 fps= 76 q=-0.0 size=N/A time=00:13:38.69 bitrate=N/A speed=3.15x    frame=19668 fps= 76 q=-0.0 size=N/A time=00:13:40.31 bitrate=N/A speed=3.15x    frame=19701 fps= 76 q=-0.0 size=N/A time=00:13:41.69 bitrate=N/A speed=3.15x    frame=19748 fps= 76 q=-0.0 size=N/A time=00:13:43.65 bitrate=N/A speed=3.15x    frame=19783 fps= 76 q=-0.0 size=N/A time=00:13:45.11 bitrate=N/A speed=3.15x    frame=19815 fps= 76 q=-0.0 size=N/A time=00:13:46.45 bitrate=N/A speed=3.15x    frame=19867 fps= 76 q=-0.0 size=N/A time=00:13:48.61 bitrate=N/A speed=3.16x    frame=19905 fps= 76 q=-0.0 size=N/A time=00:13:50.20 bitrate=N/A speed=3.16x    frame=19944 fps= 76 q=-0.0 size=N/A time=00:13:51.83 bitrate=N/A speed=3.16x    frame=19978 fps= 76 q=-0.0 size=N/A time=00:13:53.24 bitrate=N/A speed=3.15x    frame=20019 fps= 76 q=-0.0 size=N/A time=00:13:54.95 bitrate=N/A speed=3.15x    frame=20062 fps= 76 q=-0.0 size=N/A time=00:13:56.75 bitrate=N/A speed=3.16x    frame=20095 fps= 76 q=-0.0 size=N/A time=00:13:58.12 bitrate=N/A speed=3.15x    frame=20140 fps= 76 q=-0.0 size=N/A time=00:14:00.00 bitrate=N/A speed=3.16x    frame=20178 fps= 76 q=-0.0 size=N/A time=00:14:01.59 bitrate=N/A speed=3.16x    frame=20212 fps= 76 q=-0.0 size=N/A time=00:14:03.00 bitrate=N/A speed=3.15x    frame=20256 fps= 76 q=-0.0 size=N/A time=00:14:04.84 bitrate=N/A speed=3.16x    frame=20296 fps= 76 q=-0.0 size=N/A time=00:14:06.51 bitrate=N/A speed=3.16x    frame=20328 fps= 76 q=-0.0 size=N/A time=00:14:07.84 bitrate=N/A speed=3.15x    frame=20374 fps= 76 q=-0.0 size=N/A time=00:14:09.76 bitrate=N/A speed=3.16x    frame=20409 fps= 76 q=-0.0 size=N/A time=00:14:11.22 bitrate=N/A speed=3.15x    frame=20454 fps= 76 q=-0.0 size=N/A time=00:14:13.10 bitrate=N/A speed=3.16x    frame=20486 fps= 76 q=-0.0 size=N/A time=00:14:14.43 bitrate=N/A speed=3.15x    frame=20526 fps= 76 q=-0.0 size=N/A time=00:14:16.10 bitrate=N/A speed=3.15x    frame=20570 fps= 76 q=-0.0 size=N/A time=00:14:17.94 bitrate=N/A speed=3.16x    frame=20611 fps= 76 q=-0.0 size=N/A time=00:14:19.65 bitrate=N/A speed=3.16x    frame=20650 fps= 76 q=-0.0 size=N/A time=00:14:21.27 bitrate=N/A speed=3.16x    frame=20689 fps= 76 q=-0.0 size=N/A time=00:14:22.90 bitrate=N/A speed=3.16x    frame=20729 fps= 76 q=-0.0 size=N/A time=00:14:24.57 bitrate=N/A speed=3.16x    frame=20765 fps= 76 q=-0.0 size=N/A time=00:14:26.07 bitrate=N/A speed=3.16x    frame=20806 fps= 76 q=-0.0 size=N/A time=00:14:27.78 bitrate=N/A speed=3.16x    frame=20847 fps= 76 q=-0.0 size=N/A time=00:14:29.49 bitrate=N/A speed=3.16x    frame=20875 fps= 76 q=-0.0 size=N/A time=00:14:30.66 bitrate=N/A speed=3.15x    frame=20924 fps= 76 q=-0.0 size=N/A time=00:14:32.70 bitrate=N/A speed=3.16x    frame=20956 fps= 76 q=-0.0 size=N/A time=00:14:34.03 bitrate=N/A speed=3.15x    frame=21000 fps= 76 q=-0.0 size=N/A time=00:14:35.87 bitrate=N/A speed=3.16x    frame=21041 fps= 76 q=-0.0 size=N/A time=00:14:37.58 bitrate=N/A speed=3.16x    frame=21080 fps= 76 q=-0.0 size=N/A time=00:14:39.21 bitrate=N/A speed=3.16x    frame=21116 fps= 76 q=-0.0 size=N/A time=00:14:40.71 bitrate=N/A speed=3.16x    frame=21155 fps= 76 q=-0.0 size=N/A time=00:14:42.33 bitrate=N/A speed=3.16x    frame=21194 fps= 76 q=-0.0 size=N/A time=00:14:43.96 bitrate=N/A speed=3.16x    frame=21234 fps= 76 q=-0.0 size=N/A time=00:14:45.63 bitrate=N/A speed=3.16x    frame=21267 fps= 76 q=-0.0 size=N/A time=00:14:47.01 bitrate=N/A speed=3.15x    frame=21310 fps= 76 q=-0.0 size=N/A time=00:14:48.80 bitrate=N/A speed=3.16x    frame=21341 fps= 76 q=-0.0 size=N/A time=00:14:50.09 bitrate=N/A speed=3.15x    frame=21390 fps= 76 q=-0.0 size=N/A time=00:14:52.14 bitrate=N/A speed=3.16x    frame=21428 fps= 76 q=-0.0 size=N/A time=00:14:53.72 bitrate=N/A speed=3.16x    frame=21466 fps= 76 q=-0.0 size=N/A time=00:14:55.31 bitrate=N/A speed=3.16x    frame=21507 fps= 76 q=-0.0 size=N/A time=00:14:57.02 bitrate=N/A speed=3.16x    frame=21545 fps= 76 q=-0.0 size=N/A time=00:14:58.60 bitrate=N/A speed=3.16x    frame=21583 fps= 76 q=-0.0 size=N/A time=00:15:00.19 bitrate=N/A speed=3.16x    frame=21622 fps= 76 q=-0.0 size=N/A time=00:15:01.81 bitrate=N/A speed=3.16x    frame=21660 fps= 76 q=-0.0 size=N/A time=00:15:03.40 bitrate=N/A speed=3.16x    frame=21697 fps= 76 q=-0.0 size=N/A time=00:15:04.94 bitrate=N/A speed=3.15x    frame=21736 fps= 76 q=-0.0 size=N/A time=00:15:06.57 bitrate=N/A speed=3.15x    frame=21775 fps= 76 q=-0.0 size=N/A time=00:15:08.19 bitrate=N/A speed=3.15x    frame=21813 fps= 76 q=-0.0 size=N/A time=00:15:09.78 bitrate=N/A speed=3.15x    frame=21853 fps= 76 q=-0.0 size=N/A time=00:15:11.45 bitrate=N/A speed=3.15x    frame=21892 fps= 76 q=-0.0 size=N/A time=00:15:13.07 bitrate=N/A speed=3.15x    frame=21931 fps= 76 q=-0.0 size=N/A time=00:15:14.70 bitrate=N/A speed=3.15x    frame=21971 fps= 76 q=-0.0 size=N/A time=00:15:16.37 bitrate=N/A speed=3.15x    frame=22012 fps= 76 q=-0.0 size=N/A time=00:15:18.08 bitrate=N/A speed=3.16x    frame=22051 fps= 76 q=-0.0 size=N/A time=00:15:19.71 bitrate=N/A speed=3.16x    frame=22092 fps= 76 q=-0.0 size=N/A time=00:15:21.42 bitrate=N/A speed=3.16x    frame=22130 fps= 76 q=-0.0 size=N/A time=00:15:23.00 bitrate=N/A speed=3.16x    frame=22172 fps= 76 q=-0.0 size=N/A time=00:15:24.75 bitrate=N/A speed=3.16x    frame=22213 fps= 76 q=-0.0 size=N/A time=00:15:26.46 bitrate=N/A speed=3.16x    frame=22252 fps= 76 q=-0.0 size=N/A time=00:15:28.09 bitrate=N/A speed=3.16x    frame=22291 fps= 76 q=-0.0 size=N/A time=00:15:29.72 bitrate=N/A speed=3.16x    frame=22333 fps= 76 q=-0.0 size=N/A time=00:15:31.47 bitrate=N/A speed=3.16x    frame=22372 fps= 76 q=-0.0 size=N/A time=00:15:33.09 bitrate=N/A speed=3.16x    frame=22411 fps= 76 q=-0.0 size=N/A time=00:15:34.72 bitrate=N/A speed=3.16x    frame=22448 fps= 76 q=-0.0 size=N/A time=00:15:36.26 bitrate=N/A speed=3.16x    frame=22484 fps= 76 q=-0.0 size=N/A time=00:15:37.77 bitrate=N/A speed=3.16x    frame=22527 fps= 76 q=-0.0 size=N/A time=00:15:39.56 bitrate=N/A speed=3.16x    frame=22565 fps= 76 q=-0.0 size=N/A time=00:15:41.14 bitrate=N/A speed=3.16x    frame=22605 fps= 76 q=-0.0 size=N/A time=00:15:42.81 bitrate=N/A speed=3.16x    frame=22645 fps= 76 q=-0.0 size=N/A time=00:15:44.48 bitrate=N/A speed=3.16x    frame=22682 fps= 76 q=-0.0 size=N/A time=00:15:46.02 bitrate=N/A speed=3.16x    frame=22722 fps= 76 q=-0.0 size=N/A time=00:15:47.69 bitrate=N/A speed=3.16x    frame=22760 fps= 76 q=-0.0 size=N/A time=00:15:49.28 bitrate=N/A speed=3.16x    frame=22801 fps= 76 q=-0.0 size=N/A time=00:15:50.99 bitrate=N/A speed=3.16x    frame=22841 fps= 76 q=-0.0 size=N/A time=00:15:52.66 bitrate=N/A speed=3.16x    frame=22877 fps= 76 q=-0.0 size=N/A time=00:15:54.16 bitrate=N/A speed=3.16x    frame=22922 fps= 76 q=-0.0 size=N/A time=00:15:56.03 bitrate=N/A speed=3.16x    frame=22954 fps= 76 q=-0.0 size=N/A time=00:15:57.37 bitrate=N/A speed=3.16x    frame=23000 fps= 76 q=-0.0 size=N/A time=00:15:59.29 bitrate=N/A speed=3.16x    frame=23040 fps= 76 q=-0.0 size=N/A time=00:16:00.96 bitrate=N/A speed=3.16x    frame=23080 fps= 76 q=-0.0 size=N/A time=00:16:02.62 bitrate=N/A speed=3.16x    frame=23116 fps= 76 q=-0.0 size=N/A time=00:16:04.12 bitrate=N/A speed=3.16x    frame=23162 fps= 76 q=-0.0 size=N/A time=00:16:06.04 bitrate=N/A speed=3.16x    frame=23198 fps= 76 q=-0.0 size=N/A time=00:16:07.54 bitrate=N/A speed=3.16x    frame=23241 fps= 76 q=-0.0 size=N/A time=00:16:09.34 bitrate=N/A speed=3.16x    frame=23278 fps= 76 q=-0.0 size=N/A time=00:16:10.88 bitrate=N/A speed=3.16x    frame=23319 fps= 76 q=-0.0 size=N/A time=00:16:12.59 bitrate=N/A speed=3.16x    frame=23358 fps= 76 q=-0.0 size=N/A time=00:16:14.22 bitrate=N/A speed=3.16x    frame=23396 fps= 76 q=-0.0 size=N/A time=00:16:15.80 bitrate=N/A speed=3.16x    frame=23430 fps= 76 q=-0.0 size=N/A time=00:16:17.22 bitrate=N/A speed=3.16x    frame=23474 fps= 76 q=-0.0 size=N/A time=00:16:19.06 bitrate=N/A speed=3.16x    frame=23509 fps= 76 q=-0.0 size=N/A time=00:16:20.52 bitrate=N/A speed=3.16x    frame=23548 fps= 76 q=-0.0 size=N/A time=00:16:22.14 bitrate=N/A speed=3.16x    frame=23595 fps= 76 q=-0.0 size=N/A time=00:16:24.10 bitrate=N/A speed=3.16x    frame=23635 fps= 76 q=-0.0 size=N/A time=00:16:25.77 bitrate=N/A speed=3.16x    frame=23670 fps= 76 q=-0.0 size=N/A time=00:16:27.23 bitrate=N/A speed=3.16x    frame=23702 fps= 76 q=-0.0 size=N/A time=00:16:28.57 bitrate=N/A speed=3.16x    frame=23745 fps= 76 q=-0.0 size=N/A time=00:16:30.36 bitrate=N/A speed=3.16x    frame=23792 fps= 76 q=-0.0 size=N/A time=00:16:32.32 bitrate=N/A speed=3.16x    frame=23822 fps= 76 q=-0.0 size=N/A time=00:16:33.57 bitrate=N/A speed=3.16x    frame=23870 fps= 76 q=-0.0 size=N/A time=00:16:35.57 bitrate=N/A speed=3.16x    frame=23910 fps= 76 q=-0.0 size=N/A time=00:16:37.24 bitrate=N/A speed=3.16x    frame=23950 fps= 76 q=-0.0 size=N/A time=00:16:38.91 bitrate=N/A speed=3.16x    frame=23990 fps= 76 q=-0.0 size=N/A time=00:16:40.58 bitrate=N/A speed=3.16x    frame=24031 fps= 76 q=-0.0 size=N/A time=00:16:42.29 bitrate=N/A speed=3.16x    frame=24066 fps= 76 q=-0.0 size=N/A time=00:16:43.75 bitrate=N/A speed=3.16x    frame=24110 fps= 76 q=-0.0 size=N/A time=00:16:45.58 bitrate=N/A speed=3.16x    frame=24149 fps= 76 q=-0.0 size=N/A time=00:16:47.21 bitrate=N/A speed=3.16x    frame=24185 fps= 76 q=-0.0 size=N/A time=00:16:48.71 bitrate=N/A speed=3.16x    frame=24222 fps= 76 q=-0.0 size=N/A time=00:16:50.25 bitrate=N/A speed=3.16x    frame=24261 fps= 76 q=-0.0 size=N/A time=00:16:51.88 bitrate=N/A speed=3.16x    frame=24307 fps= 76 q=-0.0 size=N/A time=00:16:53.80 bitrate=N/A speed=3.16x    frame=24346 fps= 76 q=-0.0 size=N/A time=00:16:55.43 bitrate=N/A speed=3.16x    frame=24379 fps= 76 q=-0.0 size=N/A time=00:16:56.80 bitrate=N/A speed=3.16x    frame=24425 fps= 76 q=-0.0 size=N/A time=00:16:58.72 bitrate=N/A speed=3.16x    frame=24465 fps= 76 q=-0.0 size=N/A time=00:17:00.39 bitrate=N/A speed=3.16x    frame=24504 fps= 76 q=-0.0 size=N/A time=00:17:02.02 bitrate=N/A speed=3.16x    frame=24536 fps= 76 q=-0.0 size=N/A time=00:17:03.35 bitrate=N/A speed=3.16x    frame=24580 fps= 76 q=-0.0 size=N/A time=00:17:05.19 bitrate=N/A speed=3.16x    frame=24612 fps= 76 q=-0.0 size=N/A time=00:17:06.52 bitrate=N/A speed=3.16x    frame=24650 fps= 76 q=-0.0 size=N/A time=00:17:08.11 bitrate=N/A speed=3.16x    frame=24698 fps= 76 q=-0.0 size=N/A time=00:17:10.11 bitrate=N/A speed=3.16x    frame=24737 fps= 76 q=-0.0 size=N/A time=00:17:11.73 bitrate=N/A speed=3.16x    frame=24777 fps= 76 q=-0.0 size=N/A time=00:17:13.40 bitrate=N/A speed=3.16x    frame=24817 fps= 76 q=-0.0 size=N/A time=00:17:15.07 bitrate=N/A speed=3.16x    frame=24852 fps= 76 q=-0.0 size=N/A time=00:17:16.53 bitrate=N/A speed=3.16x    frame=24895 fps= 76 q=-0.0 size=N/A time=00:17:18.32 bitrate=N/A speed=3.16x    frame=24931 fps= 76 q=-0.0 size=N/A time=00:17:19.83 bitrate=N/A speed=3.16x    frame=24976 fps= 76 q=-0.0 size=N/A time=00:17:21.70 bitrate=N/A speed=3.16x    frame=25006 fps= 76 q=-0.0 size=N/A time=00:17:22.95 bitrate=N/A speed=3.16x    frame=25054 fps= 76 q=-0.0 size=N/A time=00:17:24.96 bitrate=N/A speed=3.16x    frame=25092 fps= 76 q=-0.0 size=N/A time=00:17:26.54 bitrate=N/A speed=3.16x    frame=25129 fps= 76 q=-0.0 size=N/A time=00:17:28.08 bitrate=N/A speed=3.16x    frame=25172 fps= 76 q=-0.0 size=N/A time=00:17:29.88 bitrate=N/A speed=3.16x    frame=25213 fps= 76 q=-0.0 size=N/A time=00:17:31.59 bitrate=N/A speed=3.16x    frame=25252 fps= 76 q=-0.0 size=N/A time=00:17:33.21 bitrate=N/A speed=3.16x    frame=25292 fps= 76 q=-0.0 size=N/A time=00:17:34.88 bitrate=N/A speed=3.16x    frame=25332 fps= 76 q=-0.0 size=N/A time=00:17:36.55 bitrate=N/A speed=3.16x    frame=25364 fps= 76 q=-0.0 size=N/A time=00:17:37.89 bitrate=N/A speed=3.16x    frame=25410 fps= 76 q=-0.0 size=N/A time=00:17:39.80 bitrate=N/A speed=3.16x    frame=25446 fps= 76 q=-0.0 size=N/A time=00:17:41.31 bitrate=N/A speed=3.16x    frame=25484 fps= 76 q=-0.0 size=N/A time=00:17:42.89 bitrate=N/A speed=3.16x    frame=25527 fps= 76 q=-0.0 size=N/A time=00:17:44.68 bitrate=N/A speed=3.16x    frame=25570 fps= 76 q=-0.0 size=N/A time=00:17:46.48 bitrate=N/A speed=3.16x    frame=25611 fps= 76 q=-0.0 size=N/A time=00:17:48.19 bitrate=N/A speed=3.16x    frame=25650 fps= 76 q=-0.0 size=N/A time=00:17:49.81 bitrate=N/A speed=3.16x    frame=25689 fps= 76 q=-0.0 size=N/A time=00:17:51.44 bitrate=N/A speed=3.16x    frame=25726 fps= 76 q=-0.0 size=N/A time=00:17:52.98 bitrate=N/A speed=3.16x    frame=25760 fps= 76 q=-0.0 size=N/A time=00:17:54.40 bitrate=N/A speed=3.16x    frame=25806 fps= 76 q=-0.0 size=N/A time=00:17:56.32 bitrate=N/A speed=3.16x    frame=25845 fps= 76 q=-0.0 size=N/A time=00:17:57.95 bitrate=N/A speed=3.16x    frame=25883 fps= 76 q=-0.0 size=N/A time=00:17:59.53 bitrate=N/A speed=3.16x    frame=25922 fps= 76 q=-0.0 size=N/A time=00:18:01.16 bitrate=N/A speed=3.16x    frame=25955 fps= 76 q=-0.0 size=N/A time=00:18:02.53 bitrate=N/A speed=3.16x    frame=26000 fps= 76 q=-0.0 size=N/A time=00:18:04.41 bitrate=N/A speed=3.16x    frame=26031 fps= 76 q=-0.0 size=N/A time=00:18:05.70 bitrate=N/A speed=3.16x    frame=26078 fps= 76 q=-0.0 size=N/A time=00:18:07.66 bitrate=N/A speed=3.16x    frame=26115 fps= 76 q=-0.0 size=N/A time=00:18:09.21 bitrate=N/A speed=3.16x    frame=26156 fps= 76 q=-0.0 size=N/A time=00:18:10.92 bitrate=N/A speed=3.16x    frame=26193 fps= 76 q=-0.0 size=N/A time=00:18:12.46 bitrate=N/A speed=3.16x    frame=26232 fps= 76 q=-0.0 size=N/A time=00:18:14.09 bitrate=N/A speed=3.16x    frame=26270 fps= 76 q=-0.0 size=N/A time=00:18:15.67 bitrate=N/A speed=3.16x    frame=26311 fps= 76 q=-0.0 size=N/A time=00:18:17.38 bitrate=N/A speed=3.16x    frame=26347 fps= 76 q=-0.0 size=N/A time=00:18:18.88 bitrate=N/A speed=3.16x    frame=26388 fps= 76 q=-0.0 size=N/A time=00:18:20.59 bitrate=N/A speed=3.16x    frame=26426 fps= 76 q=-0.0 size=N/A time=00:18:22.18 bitrate=N/A speed=3.16x    frame=26465 fps= 76 q=-0.0 size=N/A time=00:18:23.81 bitrate=N/A speed=3.16x    frame=26504 fps= 76 q=-0.0 size=N/A time=00:18:25.43 bitrate=N/A speed=3.16x    frame=26542 fps= 76 q=-0.0 size=N/A time=00:18:27.02 bitrate=N/A speed=3.16x    frame=26581 fps= 76 q=-0.0 size=N/A time=00:18:28.64 bitrate=N/A speed=3.16x    frame=26619 fps= 76 q=-0.0 size=N/A time=00:18:30.23 bitrate=N/A speed=3.16x    frame=26651 fps= 76 q=-0.0 size=N/A time=00:18:31.56 bitrate=N/A speed=3.16x    frame=26696 fps= 76 q=-0.0 size=N/A time=00:18:33.44 bitrate=N/A speed=3.16x    frame=26734 fps= 76 q=-0.0 size=N/A time=00:18:35.03 bitrate=N/A speed=3.16x    frame=26773 fps= 76 q=-0.0 size=N/A time=00:18:36.65 bitrate=N/A speed=3.16x    frame=26811 fps= 76 q=-0.0 size=N/A time=00:18:38.24 bitrate=N/A speed=3.16x    frame=26843 fps= 76 q=-0.0 size=N/A time=00:18:39.57 bitrate=N/A speed=3.16x    frame=26888 fps= 76 q=-0.0 size=N/A time=00:18:41.45 bitrate=N/A speed=3.16x    frame=26927 fps= 76 q=-0.0 size=N/A time=00:18:43.08 bitrate=N/A speed=3.16x    frame=26965 fps= 76 q=-0.0 size=N/A time=00:18:44.66 bitrate=N/A speed=3.16x    frame=27004 fps= 76 q=-0.0 size=N/A time=00:18:46.29 bitrate=N/A speed=3.16x    frame=27043 fps= 76 q=-0.0 size=N/A time=00:18:47.91 bitrate=N/A speed=3.16x    frame=27082 fps= 76 q=-0.0 size=N/A time=00:18:49.54 bitrate=N/A speed=3.16x    frame=27120 fps= 76 q=-0.0 size=N/A time=00:18:51.13 bitrate=N/A speed=3.16x    frame=27159 fps= 76 q=-0.0 size=N/A time=00:18:52.75 bitrate=N/A speed=3.16x    frame=27197 fps= 76 q=-0.0 size=N/A time=00:18:54.34 bitrate=N/A speed=3.16x    frame=27233 fps= 76 q=-0.0 size=N/A time=00:18:55.84 bitrate=N/A speed=3.16x    frame=27275 fps= 76 q=-0.0 size=N/A time=00:18:57.59 bitrate=N/A speed=3.16x    frame=27313 fps= 76 q=-0.0 size=N/A time=00:18:59.17 bitrate=N/A speed=3.16x    frame=27351 fps= 76 q=-0.0 size=N/A time=00:19:00.76 bitrate=N/A speed=3.16x    frame=27390 fps= 76 q=-0.0 size=N/A time=00:19:02.39 bitrate=N/A speed=3.16x    frame=27428 fps= 76 q=-0.0 size=N/A time=00:19:03.97 bitrate=N/A speed=3.16x    frame=27465 fps= 76 q=-0.0 size=N/A time=00:19:05.51 bitrate=N/A speed=3.16x    frame=27503 fps= 76 q=-0.0 size=N/A time=00:19:07.10 bitrate=N/A speed=3.16x    frame=27544 fps= 76 q=-0.0 size=N/A time=00:19:08.81 bitrate=N/A speed=3.16x    frame=27582 fps= 76 q=-0.0 size=N/A time=00:19:10.39 bitrate=N/A speed=3.16x    frame=27621 fps= 76 q=-0.0 size=N/A time=00:19:12.02 bitrate=N/A speed=3.16x    frame=27660 fps= 76 q=-0.0 size=N/A time=00:19:13.65 bitrate=N/A speed=3.16x    frame=27700 fps= 76 q=-0.0 size=N/A time=00:19:15.32 bitrate=N/A speed=3.16x    frame=27739 fps= 76 q=-0.0 size=N/A time=00:19:16.94 bitrate=N/A speed=3.16x    frame=27772 fps= 76 q=-0.0 size=N/A time=00:19:18.32 bitrate=N/A speed=3.16x    frame=27816 fps= 76 q=-0.0 size=N/A time=00:19:20.15 bitrate=N/A speed=3.16x    frame=27853 fps= 76 q=-0.0 size=N/A time=00:19:21.70 bitrate=N/A speed=3.16x    frame=27889 fps= 76 q=-0.0 size=N/A time=00:19:23.20 bitrate=N/A speed=3.16x    frame=27932 fps= 76 q=-0.0 size=N/A time=00:19:24.99 bitrate=N/A speed=3.16x    frame=27970 fps= 76 q=-0.0 size=N/A time=00:19:26.58 bitrate=N/A speed=3.16x    frame=28007 fps= 76 q=-0.0 size=N/A time=00:19:28.12 bitrate=N/A speed=3.16x    frame=28043 fps= 76 q=-0.0 size=N/A time=00:19:29.62 bitrate=N/A speed=3.16x    frame=28083 fps= 76 q=-0.0 size=N/A time=00:19:31.29 bitrate=N/A speed=3.16x    frame=28121 fps= 76 q=-0.0 size=N/A time=00:19:32.88 bitrate=N/A speed=3.16x    frame=28160 fps= 76 q=-0.0 size=N/A time=00:19:34.50 bitrate=N/A speed=3.16x    frame=28199 fps= 76 q=-0.0 size=N/A time=00:19:36.13 bitrate=N/A speed=3.16x    frame=28234 fps= 76 q=-0.0 size=N/A time=00:19:37.59 bitrate=N/A speed=3.16x    frame=28278 fps= 76 q=-0.0 size=N/A time=00:19:39.42 bitrate=N/A speed=3.16x    frame=28317 fps= 76 q=-0.0 size=N/A time=00:19:41.05 bitrate=N/A speed=3.16x    frame=28356 fps= 76 q=-0.0 size=N/A time=00:19:42.68 bitrate=N/A speed=3.16x    frame=28396 fps= 76 q=-0.0 size=N/A time=00:19:44.34 bitrate=N/A speed=3.16x    frame=28437 fps= 76 q=-0.0 size=N/A time=00:19:46.05 bitrate=N/A speed=3.16x    frame=28473 fps= 76 q=-0.0 size=N/A time=00:19:47.56 bitrate=N/A speed=3.16x    frame=28509 fps= 76 q=-0.0 size=N/A time=00:19:49.06 bitrate=N/A speed=3.16x    frame=28545 fps= 76 q=-0.0 size=N/A time=00:19:50.56 bitrate=N/A speed=3.16x    frame=28597 fps= 76 q=-0.0 size=N/A time=00:19:52.73 bitrate=N/A speed=3.16x    frame=28630 fps= 76 q=-0.0 size=N/A time=00:19:54.10 bitrate=N/A speed=3.16x    frame=28667 fps= 76 q=-0.0 size=N/A time=00:19:55.65 bitrate=N/A speed=3.16x    frame=28713 fps= 76 q=-0.0 size=N/A time=00:19:57.57 bitrate=N/A speed=3.16x    frame=28749 fps= 76 q=-0.0 size=N/A time=00:19:59.07 bitrate=N/A speed=3.16x    frame=28786 fps= 76 q=-0.0 size=N/A time=00:20:00.61 bitrate=N/A speed=3.16x    frame=28825 fps= 76 q=-0.0 size=N/A time=00:20:02.24 bitrate=N/A speed=3.16x    frame=28868 fps= 76 q=-0.0 size=N/A time=00:20:04.03 bitrate=N/A speed=3.16x    frame=28902 fps= 76 q=-0.0 size=N/A time=00:20:05.45 bitrate=N/A speed=3.16x    frame=28947 fps= 76 q=-0.0 size=N/A time=00:20:07.33 bitrate=N/A speed=3.16x    frame=28985 fps= 76 q=-0.0 size=N/A time=00:20:08.91 bitrate=N/A speed=3.16x    frame=29025 fps= 76 q=-0.0 size=N/A time=00:20:10.58 bitrate=N/A speed=3.16x    frame=29063 fps= 76 q=-0.0 size=N/A time=00:20:12.16 bitrate=N/A speed=3.16x    frame=29094 fps= 76 q=-0.0 size=N/A time=00:20:13.46 bitrate=N/A speed=3.16x    frame=29138 fps= 76 q=-0.0 size=N/A time=00:20:15.29 bitrate=N/A speed=3.16x    frame=29182 fps= 76 q=-0.0 size=N/A time=00:20:17.13 bitrate=N/A speed=3.16x    frame=29217 fps= 76 q=-0.0 size=N/A time=00:20:18.59 bitrate=N/A speed=3.16x    frame=29260 fps= 76 q=-0.0 size=N/A time=00:20:20.38 bitrate=N/A speed=3.16x    frame=29289 fps= 76 q=-0.0 size=N/A time=00:20:21.59 bitrate=N/A speed=3.16x    frame=29326 fps= 76 q=-0.0 size=N/A time=00:20:23.13 bitrate=N/A speed=3.16x    frame=29370 fps= 76 q=-0.0 size=N/A time=00:20:24.97 bitrate=N/A speed=3.16x    frame=29412 fps= 76 q=-0.0 size=N/A time=00:20:26.72 bitrate=N/A speed=3.16x    frame=29452 fps= 76 q=-0.0 size=N/A time=00:20:28.39 bitrate=N/A speed=3.16x    frame=29490 fps= 76 q=-0.0 size=N/A time=00:20:29.97 bitrate=N/A speed=3.16x    frame=29522 fps= 76 q=-0.0 size=N/A time=00:20:31.31 bitrate=N/A speed=3.16x    frame=29567 fps= 76 q=-0.0 size=N/A time=00:20:33.19 bitrate=N/A speed=3.16x    frame=29609 fps= 76 q=-0.0 size=N/A time=00:20:34.94 bitrate=N/A speed=3.16x    frame=29644 fps= 76 q=-0.0 size=N/A time=00:20:36.40 bitrate=N/A speed=3.16x    frame=29689 fps= 76 q=-0.0 size=N/A time=00:20:38.27 bitrate=N/A speed=3.16x    frame=29726 fps= 76 q=-0.0 size=N/A time=00:20:39.82 bitrate=N/A speed=3.16x    frame=29759 fps= 76 q=-0.0 size=N/A time=00:20:41.19 bitrate=N/A speed=3.16x    frame=29795 fps= 76 q=-0.0 size=N/A time=00:20:42.69 bitrate=N/A speed=3.16x    frame=29839 fps= 76 q=-0.0 size=N/A time=00:20:44.53 bitrate=N/A speed=3.16x    frame=29876 fps= 76 q=-0.0 size=N/A time=00:20:46.07 bitrate=N/A speed=3.16x    frame=29919 fps= 76 q=-0.0 size=N/A time=00:20:47.87 bitrate=N/A speed=3.16x    frame=29957 fps= 76 q=-0.0 size=N/A time=00:20:49.45 bitrate=N/A speed=3.16x    frame=29996 fps= 76 q=-0.0 size=N/A time=00:20:51.08 bitrate=N/A speed=3.16x    frame=30036 fps= 76 q=-0.0 size=N/A time=00:20:52.75 bitrate=N/A speed=3.16x    frame=30073 fps= 76 q=-0.0 size=N/A time=00:20:54.29 bitrate=N/A speed=3.16x    frame=30113 fps= 76 q=-0.0 size=N/A time=00:20:55.96 bitrate=N/A speed=3.16x    frame=30146 fps= 76 q=-0.0 size=N/A time=00:20:57.33 bitrate=N/A speed=3.16x    frame=30192 fps= 76 q=-0.0 size=N/A time=00:20:59.25 bitrate=N/A speed=3.16x    frame=30233 fps= 76 q=-0.0 size=N/A time=00:21:00.96 bitrate=N/A speed=3.16x    frame=30272 fps= 76 q=-0.0 size=N/A time=00:21:02.59 bitrate=N/A speed=3.16x    frame=30312 fps= 76 q=-0.0 size=N/A time=00:21:04.26 bitrate=N/A speed=3.16x    frame=30351 fps= 76 q=-0.0 size=N/A time=00:21:05.88 bitrate=N/A speed=3.16x    frame=30385 fps= 76 q=-0.0 size=N/A time=00:21:07.30 bitrate=N/A speed=3.16x    frame=30428 fps= 76 q=-0.0 size=N/A time=00:21:09.10 bitrate=N/A speed=3.16x    frame=30468 fps= 76 q=-0.0 size=N/A time=00:21:10.76 bitrate=N/A speed=3.16x    frame=30505 fps= 76 q=-0.0 size=N/A time=00:21:12.31 bitrate=N/A speed=3.16x    frame=30546 fps= 76 q=-0.0 size=N/A time=00:21:14.02 bitrate=N/A speed=3.16x    frame=30585 fps= 76 q=-0.0 size=N/A time=00:21:15.64 bitrate=N/A speed=3.16x    frame=30623 fps= 76 q=-0.0 size=N/A time=00:21:17.23 bitrate=N/A speed=3.16x    frame=30663 fps= 76 q=-0.0 size=N/A time=00:21:18.90 bitrate=N/A speed=3.16x    frame=30694 fps= 76 q=-0.0 size=N/A time=00:21:20.19 bitrate=N/A speed=3.16x    frame=30739 fps= 76 q=-0.0 size=N/A time=00:21:22.07 bitrate=N/A speed=3.16x    frame=30778 fps= 76 q=-0.0 size=N/A time=00:21:23.69 bitrate=N/A speed=3.16x    frame=30816 fps= 76 q=-0.0 size=N/A time=00:21:25.28 bitrate=N/A speed=3.16x    frame=30856 fps= 76 q=-0.0 size=N/A time=00:21:26.95 bitrate=N/A speed=3.16x    frame=30894 fps= 76 q=-0.0 size=N/A time=00:21:28.53 bitrate=N/A speed=3.16x    frame=30933 fps= 76 q=-0.0 size=N/A time=00:21:30.16 bitrate=N/A speed=3.16x    frame=30972 fps= 76 q=-0.0 size=N/A time=00:21:31.79 bitrate=N/A speed=3.16x    frame=31011 fps= 76 q=-0.0 size=N/A time=00:21:33.41 bitrate=N/A speed=3.16x    frame=31049 fps= 76 q=-0.0 size=N/A time=00:21:35.00 bitrate=N/A speed=3.16x    frame=31088 fps= 76 q=-0.0 size=N/A time=00:21:36.62 bitrate=N/A speed=3.16x    frame=31122 fps= 76 q=-0.0 size=N/A time=00:21:38.04 bitrate=N/A speed=3.16x    frame=31164 fps= 76 q=-0.0 size=N/A time=00:21:39.79 bitrate=N/A speed=3.16x    frame=31201 fps= 76 q=-0.0 size=N/A time=00:21:41.34 bitrate=N/A speed=3.16x    frame=31239 fps= 76 q=-0.0 size=N/A time=00:21:42.92 bitrate=N/A speed=3.16x    frame=31279 fps= 76 q=-0.0 size=N/A time=00:21:44.59 bitrate=N/A speed=3.16x    frame=31311 fps= 76 q=-0.0 size=N/A time=00:21:45.92 bitrate=N/A speed=3.16x    frame=31356 fps= 76 q=-0.0 size=N/A time=00:21:47.80 bitrate=N/A speed=3.16x    frame=31393 fps= 76 q=-0.0 size=N/A time=00:21:49.34 bitrate=N/A speed=3.16x    frame=31426 fps= 76 q=-0.0 size=N/A time=00:21:50.72 bitrate=N/A speed=3.16x    frame=31470 fps= 76 q=-0.0 size=N/A time=00:21:52.56 bitrate=N/A speed=3.16x    frame=31508 fps= 76 q=-0.0 size=N/A time=00:21:54.14 bitrate=N/A speed=3.16x    frame=31549 fps= 76 q=-0.0 size=N/A time=00:21:55.85 bitrate=N/A speed=3.16x    frame=31587 fps= 76 q=-0.0 size=N/A time=00:21:57.44 bitrate=N/A speed=3.16x    frame=31627 fps= 76 q=-0.0 size=N/A time=00:21:59.10 bitrate=N/A speed=3.16x    frame=31667 fps= 76 q=-0.0 size=N/A time=00:22:00.77 bitrate=N/A speed=3.16x    frame=31705 fps= 76 q=-0.0 size=N/A time=00:22:02.36 bitrate=N/A speed=3.16x    frame=31744 fps= 76 q=-0.0 size=N/A time=00:22:03.98 bitrate=N/A speed=3.16x    frame=31784 fps= 76 q=-0.0 size=N/A time=00:22:05.65 bitrate=N/A speed=3.16x    frame=31823 fps= 76 q=-0.0 size=N/A time=00:22:07.28 bitrate=N/A speed=3.16x    frame=31860 fps= 76 q=-0.0 size=N/A time=00:22:08.82 bitrate=N/A speed=3.16x    frame=31894 fps= 76 q=-0.0 size=N/A time=00:22:10.24 bitrate=N/A speed=3.16x    frame=31942 fps= 76 q=-0.0 size=N/A time=00:22:12.24 bitrate=N/A speed=3.16x    frame=31978 fps= 76 q=-0.0 size=N/A time=00:22:13.74 bitrate=N/A speed=3.16x    frame=32014 fps= 76 q=-0.0 size=N/A time=00:22:15.25 bitrate=N/A speed=3.16x    frame=32058 fps= 76 q=-0.0 size=N/A time=00:22:17.08 bitrate=N/A speed=3.16x    frame=32096 fps= 76 q=-0.0 size=N/A time=00:22:18.67 bitrate=N/A speed=3.16x    frame=32134 fps= 76 q=-0.0 size=N/A time=00:22:20.25 bitrate=N/A speed=3.16x    frame=32173 fps= 76 q=-0.0 size=N/A time=00:22:21.88 bitrate=N/A speed=3.16x    frame=32210 fps= 76 q=-0.0 size=N/A time=00:22:23.42 bitrate=N/A speed=3.16x    frame=32250 fps= 76 q=-0.0 size=N/A time=00:22:25.09 bitrate=N/A speed=3.16x    frame=32289 fps= 76 q=-0.0 size=N/A time=00:22:26.72 bitrate=N/A speed=3.16x    frame=32318 fps= 76 q=-0.0 size=N/A time=00:22:27.92 bitrate=N/A speed=3.15x    frame=32366 fps= 76 q=-0.0 size=N/A time=00:22:29.93 bitrate=N/A speed=3.16x    frame=32402 fps= 76 q=-0.0 size=N/A time=00:22:31.43 bitrate=N/A speed=3.16x    frame=32444 fps= 76 q=-0.0 size=N/A time=00:22:33.18 bitrate=N/A speed=3.16x    frame=32481 fps= 76 q=-0.0 size=N/A time=00:22:34.72 bitrate=N/A speed=3.16x    frame=32522 fps= 76 q=-0.0 size=N/A time=00:22:36.43 bitrate=N/A speed=3.16x    frame=32561 fps= 76 q=-0.0 size=N/A time=00:22:38.06 bitrate=N/A speed=3.16x    frame=32599 fps= 76 q=-0.0 size=N/A time=00:22:39.64 bitrate=N/A speed=3.16x    frame=32640 fps= 76 q=-0.0 size=N/A time=00:22:41.36 bitrate=N/A speed=3.16x    frame=32677 fps= 76 q=-0.0 size=N/A time=00:22:42.90 bitrate=N/A speed=3.16x    frame=32715 fps= 76 q=-0.0 size=N/A time=00:22:44.48 bitrate=N/A speed=3.16x    frame=32753 fps= 76 q=-0.0 size=N/A time=00:22:46.07 bitrate=N/A speed=3.16x    frame=32789 fps= 76 q=-0.0 size=N/A time=00:22:47.57 bitrate=N/A speed=3.16x    frame=32821 fps= 76 q=-0.0 size=N/A time=00:22:48.90 bitrate=N/A speed=3.15x    frame=32869 fps= 76 q=-0.0 size=N/A time=00:22:50.91 bitrate=N/A speed=3.16x    frame=32906 fps= 76 q=-0.0 size=N/A time=00:22:52.45 bitrate=N/A speed=3.16x    frame=32942 fps= 76 q=-0.0 size=N/A time=00:22:53.95 bitrate=N/A speed=3.15x    frame=32975 fps= 76 q=-0.0 size=N/A time=00:22:55.33 bitrate=N/A speed=3.15x    frame=33019 fps= 76 q=-0.0 size=N/A time=00:22:57.16 bitrate=N/A speed=3.15x    frame=33053 fps= 76 q=-0.0 size=N/A time=00:22:58.58 bitrate=N/A speed=3.15x    frame=33099 fps= 76 q=-0.0 size=N/A time=00:23:00.50 bitrate=N/A speed=3.15x    frame=33136 fps= 76 q=-0.0 size=N/A time=00:23:02.04 bitrate=N/A speed=3.15x    frame=33166 fps= 76 q=-0.0 size=N/A time=00:23:03.29 bitrate=N/A speed=3.15x    frame=33215 fps= 76 q=-0.0 size=N/A time=00:23:05.34 bitrate=N/A speed=3.15x    frame=33252 fps= 76 q=-0.0 size=N/A time=00:23:06.88 bitrate=N/A speed=3.15x    frame=33286 fps= 76 q=-0.0 size=N/A time=00:23:08.30 bitrate=N/A speed=3.15x    frame=33330 fps= 76 q=-0.0 size=N/A time=00:23:10.13 bitrate=N/A speed=3.15x    frame=33367 fps= 76 q=-0.0 size=N/A time=00:23:11.68 bitrate=N/A speed=3.15x    frame=33408 fps= 76 q=-0.0 size=N/A time=00:23:13.39 bitrate=N/A speed=3.15x    frame=33437 fps= 76 q=-0.0 size=N/A time=00:23:14.60 bitrate=N/A speed=3.15x    frame=33486 fps= 76 q=-0.0 size=N/A time=00:23:16.64 bitrate=N/A speed=3.15x    frame=33524 fps= 76 q=-0.0 size=N/A time=00:23:18.23 bitrate=N/A speed=3.15x    frame=33563 fps= 76 q=-0.0 size=N/A time=00:23:19.85 bitrate=N/A speed=3.15x    frame=33600 fps= 76 q=-0.0 size=N/A time=00:23:21.40 bitrate=N/A speed=3.15x    frame=33639 fps= 76 q=-0.0 size=N/A time=00:23:23.02 bitrate=N/A speed=3.15x    frame=33675 fps= 76 q=-0.0 size=N/A time=00:23:24.52 bitrate=N/A speed=3.15x    frame=33711 fps= 76 q=-0.0 size=N/A time=00:23:26.02 bitrate=N/A speed=3.15x    frame=33753 fps= 76 q=-0.0 size=N/A time=00:23:27.78 bitrate=N/A speed=3.15x    frame=33792 fps= 76 q=-0.0 size=N/A time=00:23:29.40 bitrate=N/A speed=3.15x    frame=33830 fps= 76 q=-0.0 size=N/A time=00:23:30.99 bitrate=N/A speed=3.15x    frame=33869 fps= 76 q=-0.0 size=N/A time=00:23:32.61 bitrate=N/A speed=3.15x    frame=33908 fps= 76 q=-0.0 size=N/A time=00:23:34.24 bitrate=N/A speed=3.15x    frame=33946 fps= 76 q=-0.0 size=N/A time=00:23:35.83 bitrate=N/A speed=3.15x    frame=33987 fps= 76 q=-0.0 size=N/A time=00:23:37.54 bitrate=N/A speed=3.15x    frame=34023 fps= 76 q=-0.0 size=N/A time=00:23:39.04 bitrate=N/A speed=3.15x    frame=34065 fps= 76 q=-0.0 size=N/A time=00:23:40.79 bitrate=N/A speed=3.15x    [Parsed_psnr_10 @ 00000219ad1b9a40] PSNR y:46.408303 u:51.779150 v:50.864601 average:47.516456 min:40.485992 max:inf
[out#0/null @ 00000219aa73d200] video:14654KiB audio:266704KiB subtitle:0KiB other streams:0KiB global headers:0KiB muxing overhead: unknown
frame=34104 fps= 76 q=-0.0 Lsize=N/A time=00:23:42.42 bitrate=N/A speed=3.15x    
